<svg width="111" height="16" viewBox="0 0 111 16" fill="none" xmlns="http://www.w3.org/2000/svg">
<g clip-path="url(#clip0_879_162962)">
<path d="M109.697 7.15719L102.865 13.9331C102.738 14.0602 102.566 14.1316 102.386 14.1316C102.206 14.1316 102.034 14.0602 101.906 13.9331L97.0222 9.04899C96.8968 8.92085 96.8266 8.74871 96.8266 8.56944C96.8266 8.39018 96.8968 8.21804 97.0222 8.0899L98.5663 6.54816C98.6935 6.42107 98.866 6.34969 99.0459 6.34969C99.2257 6.34969 99.3982 6.42107 99.5254 6.54816L101.897 8.92191C102.025 9.04784 102.197 9.11843 102.376 9.11843C102.556 9.11843 102.728 9.04784 102.856 8.92191L109.083 2.58952C108.541 1.79199 107.813 1.13906 106.961 0.687686C106.109 0.236314 105.16 0.000214697 104.196 -1.52588e-05L94.9338 -1.52588e-05C94.7148 0.000619454 94.505 0.0880522 94.3504 0.243116C94.1958 0.39818 94.1089 0.608223 94.1089 0.827199V15.1752C94.1089 15.3939 94.1958 15.6037 94.3505 15.7584C94.5052 15.9131 94.715 16 94.9338 16H104.191C105.758 15.9993 107.26 15.3767 108.368 14.2689C109.476 13.161 110.099 11.6587 110.099 10.092V6.78074C109.898 6.97256 109.735 7.11882 109.697 7.15719Z" fill="#424242"/>
<path d="M88.9035 4.45016H84.6907C84.6035 4.45016 84.52 4.48477 84.4584 4.54638C84.3968 4.60798 84.3622 4.69153 84.3622 4.77865V5.8912C84.3622 5.97832 84.3968 6.06187 84.4584 6.12347C84.52 6.18508 84.6035 6.21968 84.6907 6.21968H88.9658C89.1566 6.21968 89.3395 6.29547 89.4744 6.43037C89.6093 6.56526 89.6851 6.74823 89.6851 6.939V9.0442C89.6851 9.23498 89.6093 9.41794 89.4744 9.55283C89.3395 9.68773 89.1566 9.76352 88.9658 9.76352H84.6907C84.6035 9.76352 84.52 9.79813 84.4584 9.85973C84.3968 9.92133 84.3622 10.0049 84.3622 10.092V11.2213C84.3622 11.3085 84.3968 11.392 84.4584 11.4536C84.52 11.5152 84.6035 11.5498 84.6907 11.5498H88.9035C89.582 11.5498 90.2327 11.2803 90.7125 10.8005C91.1923 10.3207 91.4618 9.66997 91.4618 8.99145V7.00614C91.4612 6.32803 91.1914 5.67792 90.7117 5.19865C90.2319 4.71938 89.5816 4.45016 88.9035 4.45016Z" fill="#424242"/>
<path d="M61.4472 4.45016C62.2408 3.6661 63.0848 2.8317 63.4996 2.41449C63.5501 2.36098 63.5836 2.29377 63.5961 2.22128C63.6086 2.14879 63.5994 2.07424 63.5697 2.00694C63.54 1.93964 63.4911 1.88259 63.4292 1.84292C63.3673 1.80325 63.295 1.78271 63.2215 1.78389H61.7493C61.697 1.7844 61.6455 1.7955 61.5977 1.81652C61.5499 1.83754 61.5068 1.86804 61.4711 1.90618C61.1163 2.28741 59.9774 3.43113 58.9631 4.45016L58.2798 5.13591L57.7571 5.66101C57.7114 5.70751 57.6805 5.76655 57.6685 5.83062C57.6565 5.89468 57.6638 5.96088 57.6895 6.02079C57.7152 6.08069 57.7582 6.13159 57.8129 6.16701C57.8676 6.20243 57.9317 6.22076 57.9968 6.21968H61.2553C61.4822 6.21936 61.707 6.26378 61.9167 6.3504C62.1265 6.43702 62.317 6.56413 62.4776 6.72447C62.6382 6.88481 62.7656 7.07523 62.8525 7.28483C62.9394 7.49444 62.9841 7.71913 62.9841 7.94604V9.76831H55.9468C55.6924 9.76831 55.4485 9.66726 55.2686 9.4874C55.0887 9.30753 54.9877 9.06358 54.9877 8.80922V3.8843C54.9877 3.79718 54.9531 3.71362 54.8915 3.65202C54.8299 3.59042 54.7463 3.55581 54.6592 3.55581H53.5491C53.4623 3.55644 53.3794 3.59133 53.3183 3.65286C53.2572 3.7144 53.223 3.79759 53.223 3.8843V8.98665C53.223 9.66475 53.4922 10.3151 53.9714 10.7948C54.4507 11.2746 55.1008 11.5444 55.7789 11.545H62.2H62.3655H64.4299C64.517 11.545 64.6006 11.5104 64.6622 11.4488C64.7238 11.3872 64.7584 11.3036 64.7584 11.2165V7.76861C64.759 6.88955 64.4106 6.04621 63.7897 5.42395C63.1688 4.80169 62.3262 4.45143 61.4472 4.45016Z" fill="#424242"/>
<path d="M52.0073 3.55582H50.8972C50.8101 3.55582 50.7265 3.59043 50.6649 3.65203C50.6033 3.71363 50.5687 3.79718 50.5687 3.8843V8.80923C50.5687 9.06359 50.4676 9.30754 50.2878 9.4874C50.1079 9.66727 49.864 9.76831 49.6096 9.76831H45.5622C45.5192 9.76831 45.4766 9.77683 45.4369 9.79336C45.3972 9.8099 45.3611 9.83414 45.3308 9.86467C45.3005 9.89521 45.2765 9.93144 45.2603 9.97128C45.244 10.0111 45.2358 10.0538 45.2362 10.0968V11.2213C45.2358 11.2644 45.244 11.307 45.2603 11.3469C45.2765 11.3867 45.3005 11.4229 45.3308 11.4535C45.3611 11.484 45.3972 11.5082 45.4369 11.5248C45.4766 11.5413 45.5192 11.5498 45.5622 11.5498H49.7774C50.1138 11.5498 50.4469 11.4835 50.7576 11.3546C51.0683 11.2257 51.3506 11.0369 51.5882 10.7988C51.8258 10.5607 52.0142 10.2781 52.1424 9.96718C52.2707 9.65623 52.3364 9.32303 52.3358 8.98666V3.8843C52.3352 3.79738 52.3004 3.71419 52.2389 3.65272C52.1774 3.59125 52.0943 3.55644 52.0073 3.55582Z" fill="#424242"/>
<path d="M83.4199 6.54818V8.99145C83.4199 9.66873 83.1514 10.3184 82.6731 10.798C82.1949 11.2775 81.546 11.5479 80.8687 11.5498H79.1232C79.0788 11.5509 79.0347 11.5429 78.9935 11.5264C78.9523 11.5099 78.9148 11.4853 78.8834 11.4539L78.1233 10.6938L78.0898 10.6507V11.1302C78.0919 11.2283 78.0591 11.3239 77.9971 11.3999C77.9352 11.4759 77.8482 11.5274 77.7517 11.545H75.704H75.5434H73.6564V11.6433C73.6564 12.3219 73.3868 12.9726 72.907 13.4524C72.4272 13.9322 71.7765 14.2017 71.098 14.2017H68.2279C67.5498 14.2011 66.8997 13.9312 66.4204 13.4515C65.9412 12.9718 65.6719 12.3214 65.6719 11.6433V8.32249C65.6716 8.27906 65.68 8.236 65.6965 8.19584C65.7131 8.15569 65.7375 8.11924 65.7683 8.08864C65.7991 8.05804 65.8357 8.03391 65.876 8.01766C65.9163 8.0014 65.9594 7.99336 66.0028 7.994H67.1274C67.212 7.99771 67.2919 8.03395 67.3504 8.09516C67.4089 8.15636 67.4415 8.23781 67.4415 8.32249V11.7105C67.4415 11.9012 67.5173 12.0842 67.6522 12.2191C67.7871 12.354 67.97 12.4298 68.1608 12.4298H71.1579C71.3487 12.4298 71.5317 12.354 71.6666 12.2191C71.8015 12.0842 71.8773 11.9012 71.8773 11.7105V11.5498H70.4386C70.3515 11.5498 70.2679 11.5152 70.2063 11.4536C70.1447 11.392 70.1101 11.3085 70.1101 11.2213V10.0968C70.1095 10.0438 70.1222 9.99151 70.1469 9.94462C70.1716 9.89773 70.2076 9.85774 70.2516 9.82826C70.306 9.78895 70.3715 9.76796 70.4386 9.76832H76.313V6.939C76.313 6.74823 76.2373 6.56527 76.1024 6.43037C75.9675 6.29547 75.7845 6.21969 75.5937 6.21969H72.5486C72.4829 6.22127 72.4183 6.20312 72.3631 6.16759C72.3078 6.13206 72.2645 6.08079 72.2387 6.02038C72.2128 5.95998 72.2057 5.89322 72.2182 5.82873C72.2308 5.76425 72.2623 5.70499 72.3088 5.65862L72.7165 5.27499L73.4358 4.55567C73.4668 4.52385 73.5042 4.49887 73.5455 4.48236C73.5868 4.46584 73.6311 4.45814 73.6755 4.45976H75.5506C75.8379 4.45855 76.1233 4.50639 76.3946 4.60123C76.8948 4.77695 77.3281 5.1036 77.6347 5.53608C77.9414 5.96857 78.1062 6.48557 78.1065 7.01573V8.99145C78.1065 9.23123 78.1065 9.74914 78.1065 9.76832H78.7108H78.8163H80.9239C81.1146 9.76832 81.2976 9.69253 81.4325 9.55763C81.5674 9.42274 81.6432 9.23977 81.6432 9.049V6.54818C81.6432 6.46106 81.6778 6.3775 81.7394 6.3159C81.801 6.2543 81.8846 6.21969 81.9717 6.21969H83.0842C83.1713 6.21969 83.2549 6.2543 83.3165 6.3159C83.3781 6.3775 83.4127 6.46106 83.4127 6.54818" fill="#424242"/>
<path d="M76.8789 12.4322H75.7616C75.7185 12.4319 75.6759 12.4401 75.636 12.4563C75.5962 12.4726 75.56 12.4965 75.5294 12.5268C75.4989 12.5572 75.4747 12.5932 75.4581 12.6329C75.4416 12.6726 75.4331 12.7152 75.4331 12.7583V13.878C75.4331 13.9651 75.4677 14.0487 75.5293 14.1103C75.5909 14.1719 75.6744 14.2065 75.7616 14.2065H76.8789C76.966 14.2065 77.0496 14.1719 77.1112 14.1103C77.1728 14.0487 77.2074 13.9651 77.2074 13.878V12.7583C77.2074 12.7152 77.1989 12.6726 77.1823 12.6329C77.1658 12.5932 77.1416 12.5572 77.111 12.5268C77.0805 12.4965 77.0443 12.4726 77.0044 12.4563C76.9646 12.4401 76.9219 12.4319 76.8789 12.4322Z" fill="#424242"/>
<path d="M82.2042 12.4322H79.3102C79.2672 12.4319 79.2245 12.4401 79.1846 12.4563C79.1448 12.4726 79.1086 12.4965 79.078 12.5268C79.0475 12.5572 79.0233 12.5932 79.0067 12.6329C78.9902 12.6726 78.9817 12.7152 78.9817 12.7583V13.878C78.9817 13.9651 79.0163 14.0487 79.0779 14.1103C79.1395 14.1719 79.2231 14.2065 79.3102 14.2065H82.2042C82.2914 14.2065 82.3749 14.1719 82.4365 14.1103C82.4981 14.0487 82.5327 13.9651 82.5327 13.878V12.7583C82.5327 12.7152 82.5242 12.6726 82.5077 12.6329C82.4911 12.5932 82.4669 12.5572 82.4364 12.5268C82.4058 12.4965 82.3696 12.4726 82.3298 12.4563C82.2899 12.4401 82.2473 12.4319 82.2042 12.4322Z" fill="#424242"/>
<path d="M48.3292 8.87157H47.2454C47.1769 8.87192 47.11 8.85052 47.0545 8.81045C46.9989 8.77038 46.9574 8.7137 46.9361 8.64858L45.3824 3.98741C45.3656 3.93826 45.3608 3.8858 45.3683 3.83441C45.3759 3.78302 45.3956 3.73418 45.4259 3.69195C45.4562 3.64973 45.4961 3.61535 45.5423 3.59167C45.5885 3.56799 45.6398 3.5557 45.6917 3.55582H46.7755C46.8444 3.55622 46.9116 3.57815 46.9675 3.61856C47.0233 3.65897 47.0652 3.71584 47.0872 3.7812L48.6433 8.44957C48.6602 8.49891 48.665 8.55158 48.6573 8.60317C48.6496 8.65475 48.6297 8.70373 48.5991 8.74601C48.5686 8.78828 48.5284 8.82262 48.4818 8.84614C48.4353 8.86965 48.3838 8.88166 48.3316 8.88116" fill="#424242"/>
<path d="M43.1189 6.23406H41.9944C41.9513 6.23406 41.9086 6.24256 41.8687 6.25907C41.8288 6.27558 41.7926 6.29977 41.7621 6.33028C41.7316 6.36078 41.7074 6.39699 41.6909 6.43685C41.6744 6.4767 41.6659 6.51941 41.6659 6.56255V9.00583C41.6659 9.05139 41.6659 9.09934 41.6659 9.1449C41.6469 9.32208 41.5628 9.4859 41.4299 9.60462C41.297 9.72334 41.1248 9.7885 40.9466 9.78749H40.5989C40.4207 9.7885 40.2485 9.72334 40.1156 9.60462C39.9827 9.4859 39.8986 9.32208 39.8796 9.1449C39.8796 9.09934 39.8796 9.05139 39.8796 9.00583V6.55776C39.8784 6.47351 39.8449 6.39293 39.786 6.33268C39.7271 6.27244 39.6473 6.23713 39.5631 6.23406H38.429C38.3419 6.23406 38.2583 6.26867 38.1967 6.33028C38.1351 6.39188 38.1005 6.47543 38.1005 6.56255V9.00583C38.1005 9.05139 38.1005 9.09934 38.1005 9.1449C38.0815 9.32208 37.9974 9.4859 37.8645 9.60462C37.7316 9.72334 37.5594 9.7885 37.3812 9.78749H37.0335C36.8553 9.7885 36.6831 9.72334 36.5502 9.60462C36.4173 9.4859 36.3332 9.32208 36.3142 9.1449C36.3142 9.09934 36.3142 9.05139 36.3142 9.00583V6.55776C36.3132 6.47547 36.2814 6.39654 36.225 6.3366C36.1686 6.27666 36.0918 6.24007 36.0097 6.23406H34.8852C34.798 6.23406 34.7145 6.26867 34.6529 6.33028C34.5913 6.39188 34.5567 6.47543 34.5567 6.56255V9.00583C34.5567 9.05139 34.5567 9.09934 34.5567 9.1449C34.5377 9.32208 34.4536 9.4859 34.3207 9.60462C34.1878 9.72334 34.0155 9.7885 33.8373 9.78749H31.8856V6.55536C31.8838 6.47072 31.8493 6.39006 31.7895 6.3302C31.7296 6.27034 31.6489 6.2359 31.5643 6.23406H30.4422C30.355 6.23406 30.2715 6.26867 30.2099 6.33028C30.1483 6.39188 30.1137 6.47543 30.1137 6.56255V11.4419C30.1137 11.5744 30.0876 11.7055 30.0368 11.8278C29.986 11.9502 29.9116 12.0613 29.8179 12.1549C29.7241 12.2484 29.6128 12.3225 29.4904 12.373C29.3679 12.4235 29.2367 12.4493 29.1042 12.449H28.2267C28.161 12.4474 28.0964 12.4655 28.0411 12.5011C27.9859 12.5366 27.9425 12.5879 27.9167 12.6483C27.8909 12.7087 27.8838 12.7754 27.8963 12.8399C27.9088 12.9044 27.9404 12.9637 27.9869 13.01L29.1066 14.1298C29.1379 14.1613 29.1753 14.1862 29.2165 14.2027C29.2578 14.2192 29.302 14.227 29.3464 14.2257C30.0175 14.2226 30.6605 13.9559 31.1368 13.4832C31.6131 13.0105 31.8846 12.3695 31.8928 11.6985V10.6866L32.6745 11.4707C32.7059 11.502 32.7433 11.5267 32.7845 11.5432C32.8257 11.5597 32.8699 11.5676 32.9142 11.5666H33.7822C34.3982 11.5686 34.9943 11.3481 35.4606 10.9456C35.927 11.3481 36.523 11.5686 37.139 11.5666H37.3524C37.9684 11.5686 38.5645 11.3481 39.0308 10.9456C39.4969 11.3485 40.0931 11.5691 40.7092 11.5666H40.9226C41.5386 11.5682 42.1345 11.3477 42.601 10.9456C42.601 10.9456 43.4858 10.0896 43.4858 9.04419V6.5074C43.4727 6.42282 43.427 6.34675 43.3583 6.29561C43.2897 6.24447 43.2037 6.22237 43.1189 6.23406Z" fill="#424242"/>
<path d="M27.4282 9.78509V8.95068V6.55296C27.4282 6.46584 27.3936 6.38229 27.332 6.32068C27.2704 6.25908 27.1869 6.22447 27.0997 6.22447H22.7838C22.6228 6.22468 22.4622 6.24074 22.3043 6.27243C21.7451 6.40794 21.2477 6.72749 20.892 7.17974C20.5363 7.63198 20.3429 8.19068 20.343 8.76606C20.343 10.1831 21.4915 11.5714 22.9085 11.5714H24.6397C24.6841 11.5727 24.7283 11.5649 24.7695 11.5484C24.8108 11.5319 24.8482 11.5071 24.8794 11.4755L25.6635 10.701V11.4419C25.6635 11.709 25.5574 11.9651 25.3685 12.154C25.1797 12.3429 24.9235 12.449 24.6565 12.449H23.7621C23.6964 12.4474 23.6318 12.4655 23.5766 12.5011C23.5213 12.5366 23.478 12.5879 23.4522 12.6483C23.4263 12.7087 23.4192 12.7754 23.4317 12.8399C23.4443 12.9044 23.4758 12.9637 23.5223 13.01L24.6445 14.1322C24.7053 14.1921 24.7868 14.2265 24.8723 14.2281C25.5239 14.2242 26.1495 13.9721 26.6218 13.523C27.094 13.074 27.3772 12.4618 27.4138 11.8112V11.6961V10.6842V9.78509H27.4282ZM22.8606 9.80667C22.6596 9.80667 22.4669 9.72684 22.3248 9.58475C22.1827 9.44266 22.1029 9.24994 22.1029 9.04899V8.74927C22.1029 8.5481 22.1826 8.35514 22.3247 8.21266C22.4667 8.07019 22.6594 7.98983 22.8606 7.9892H25.6539V8.89793C25.6527 8.9155 25.6527 8.93312 25.6539 8.95068V9.80667H22.8606Z" fill="#424242"/>
<path d="M19.1177 6.21968H18.0052C17.9621 6.21968 17.9195 6.22819 17.8798 6.24473C17.8401 6.26127 17.804 6.2855 17.7737 6.31604C17.7434 6.34657 17.7195 6.3828 17.7032 6.42264C17.687 6.46248 17.6788 6.50514 17.6791 6.54817V9.04899C17.6791 9.23977 17.6033 9.42273 17.4684 9.55763C17.3335 9.69252 17.1505 9.76831 16.9598 9.76831H14.9936V6.54817C14.9936 6.46105 14.959 6.3775 14.8974 6.31589C14.8358 6.25429 14.7523 6.21968 14.6651 6.21968H13.555C13.4679 6.21968 13.3843 6.25429 13.3227 6.31589C13.2611 6.3775 13.2265 6.46105 13.2265 6.54817V9.04899C13.2261 9.18365 13.1879 9.3155 13.1163 9.42952C13.0446 9.54355 12.9424 9.63518 12.8213 9.69398C12.7903 9.70845 12.7582 9.72047 12.7254 9.72995L12.6606 9.75152C12.6407 9.7527 12.6207 9.7527 12.6007 9.75152C12.5696 9.75388 12.5383 9.75388 12.5072 9.75152H12.0276C11.8774 9.72118 11.7408 9.64364 11.6377 9.53021C11.5346 9.41677 11.4705 9.27338 11.4546 9.12092C11.4546 9.07537 11.4546 9.02981 11.4546 8.98425V6.55296C11.4527 6.4669 11.4169 6.38507 11.3549 6.32533C11.2929 6.26558 11.2098 6.23278 11.1237 6.23407H9.99917C9.91205 6.23407 9.8285 6.26868 9.76689 6.33028C9.70529 6.39188 9.67068 6.47543 9.67068 6.56256V9.00104C9.67068 9.0466 9.67068 9.09215 9.67068 9.13771C9.65223 9.31532 9.56837 9.47973 9.43542 9.59894C9.30247 9.71815 9.12993 9.78365 8.95136 9.7827H8.60849C8.4454 9.78301 8.28704 9.72789 8.15939 9.62638C8.03174 9.52487 7.94238 9.383 7.90596 9.22403C7.89352 9.17056 7.88709 9.11587 7.88677 9.06098V6.55296C7.88428 6.46752 7.84857 6.38641 7.78724 6.32686C7.7259 6.26732 7.64377 6.23403 7.55829 6.23407H6.42176C6.341 6.24236 6.26617 6.28028 6.2117 6.3405C6.15724 6.40071 6.12701 6.47897 6.12685 6.56016V11.4371C6.12685 11.7042 6.02075 11.9604 5.83189 12.1492C5.64303 12.3381 5.38689 12.4442 5.1198 12.4442H3.57087C3.30357 12.4442 3.04717 12.3381 2.85793 12.1494C2.6687 11.9606 2.56206 11.7044 2.56143 11.4371V8.32009C2.56175 8.27706 2.55355 8.2344 2.5373 8.19456C2.52105 8.15472 2.49708 8.11849 2.46677 8.08795C2.43646 8.05742 2.40041 8.03318 2.36069 8.01665C2.32096 8.00011 2.27836 7.9916 2.23534 7.9916H1.1132C1.06925 7.99158 1.02573 8.00038 0.985242 8.01749C0.94475 8.03459 0.908102 8.05965 0.877471 8.09117C0.846839 8.1227 0.822846 8.16005 0.806914 8.20102C0.790981 8.24199 0.783433 8.28574 0.784716 8.32968V11.6601C0.784716 12.3395 1.05443 12.9911 1.5346 13.4717C2.01477 13.9523 2.66611 14.2226 3.34549 14.2233H5.34039C6.02041 14.2233 6.6726 13.9533 7.15367 13.4727C7.63474 12.9921 7.90532 12.3401 7.90596 11.6601V11.5378H8.79551V11.5234C8.84259 11.549 8.89539 11.5622 8.94897 11.5618C9.54108 11.5478 10.1099 11.3283 10.5578 10.9408C10.9212 11.2545 11.3659 11.459 11.8406 11.5306C11.8582 11.532 11.8758 11.532 11.8934 11.5306H11.9173C12.0207 11.5439 12.1248 11.5511 12.2291 11.5522H12.3369V11.5354H12.4377C12.5724 11.5367 12.707 11.5279 12.8405 11.5091C13.3764 11.4255 13.8718 11.1735 14.2551 10.7897L14.9169 11.4515C14.9483 11.4829 14.9858 11.5075 15.027 11.524C15.0682 11.5405 15.1123 11.5485 15.1567 11.5474H16.8974C17.2328 11.5465 17.5646 11.4795 17.8741 11.3503C18.1835 11.2211 18.4645 11.0322 18.701 10.7944C18.9374 10.5566 19.1247 10.2746 19.2522 9.96441C19.3796 9.65424 19.4447 9.32199 19.4438 8.98665V6.54817C19.4441 6.50514 19.4359 6.46248 19.4197 6.42264C19.4034 6.3828 19.3795 6.34657 19.3491 6.31604C19.3188 6.2855 19.2828 6.26127 19.2431 6.24473C19.2033 6.22819 19.1607 6.21968 19.1177 6.21968Z" fill="#424242"/>
<path d="M18.2306 12.4442H15.3413C15.2983 12.4442 15.2557 12.4527 15.216 12.4692C15.1762 12.4858 15.1402 12.51 15.1099 12.5405C15.0796 12.5711 15.0556 12.6073 15.0393 12.6471C15.0231 12.687 15.0149 12.7296 15.0152 12.7727V13.89C15.0152 13.9765 15.0496 14.0594 15.1107 14.1206C15.1719 14.1817 15.2548 14.2161 15.3413 14.2161H18.2306C18.2736 14.2164 18.3162 14.2082 18.3561 14.192C18.3959 14.1757 18.4322 14.1517 18.4627 14.1214C18.4932 14.0911 18.5175 14.0551 18.534 14.0153C18.5505 13.9756 18.559 13.933 18.559 13.89V12.7727C18.559 12.6855 18.5244 12.602 18.4628 12.5404C18.4012 12.4788 18.3177 12.4442 18.2306 12.4442Z" fill="#424242"/>
</g>
<defs>
<clipPath id="clip0_879_162962">
<rect width="109.319" height="16" fill="white" transform="translate(0.784729)"/>
</clipPath>
</defs>
</svg>
