<svg width="46" height="16" viewBox="0 0 46 16" fill="none" xmlns="http://www.w3.org/2000/svg">
<path d="M9.36902 0.0135803H7.92815C7.69512 0.0135803 7.50598 0.202718 7.50598 0.435747V3.44078H3.80106C3.58878 3.44078 3.38049 3.46193 3.18018 3.50183C1.73013 3.85178 0.652771 5.15858 0.652771 6.71556V9.27329C0.652771 11.0992 2.13315 12.5796 3.95907 12.5796H6.17843C6.26861 12.5796 6.356 12.5509 6.42742 12.4982C6.44498 12.4858 6.46214 12.4719 6.4773 12.4563L6.4781 12.4555L7.50718 11.4224V12.1578C7.50718 12.3897 7.69711 12.5796 7.92935 12.5796H9.3355C9.54499 12.5796 9.72016 12.4455 9.7848 12.26C9.78959 12.2372 9.79158 12.2137 9.79158 12.1889V0.435747C9.79078 0.202718 9.60205 0.0135803 9.36902 0.0135803ZM7.50598 10.2944H3.91598C3.3757 10.2944 2.93757 9.85627 2.93757 9.31639V6.70359C2.93757 6.16331 3.3753 5.72598 3.91518 5.72479H7.50598V10.2944Z" fill="#424750"/>
<path d="M23.0427 3.44754H21.6362C21.4031 3.44754 21.2144 3.63668 21.2144 3.86971V4.58316L21.2076 4.57478L20.2041 3.57084C20.1366 3.5034 20.0026 3.44754 19.906 3.44754H17.6667C15.8404 3.44754 14.3608 4.92752 14.3608 6.75344V9.31197C14.3608 10.8686 15.4377 12.175 16.8882 12.5257C17.0893 12.5652 17.2968 12.5864 17.5095 12.5864H21.2144V12.641C21.2144 12.8214 21.1781 13.0021 21.0911 13.1609C20.9051 13.5009 20.544 13.7319 20.1286 13.7319H17.3151C16.7226 13.7319 16.4213 14.447 16.8383 14.868C17.1639 15.1999 17.4959 15.5383 17.7405 15.7885C17.8682 15.9166 18.0378 15.9872 18.2177 15.9872H20.1362C20.5396 15.9872 20.9255 15.9174 21.2822 15.7885C22.5862 15.3161 23.4984 14.0559 23.4984 12.5772V3.83858C23.4984 3.81384 23.4972 3.7903 23.492 3.76756C23.4274 3.58201 23.2518 3.44754 23.0427 3.44754ZM21.214 10.2956H17.6224C17.0821 10.2948 16.6448 9.85744 16.6448 9.31716V6.70436C16.6448 6.16408 17.0829 5.72596 17.6236 5.72596H21.2144V10.2956H21.214Z" fill="#424750"/>
<path d="M12.7962 3.44077H11.3549C11.1223 3.44077 10.9332 3.6299 10.9332 3.86293V12.1578C10.9332 12.3908 11.1223 12.5796 11.3549 12.5796H12.7962C13.0292 12.5796 13.2184 12.3908 13.2184 12.1578V3.86293C13.2184 3.6299 13.0292 3.44077 12.7962 3.44077Z" fill="#424750"/>
<path d="M13.0277 0.0706177H11.5968C11.3657 0.0706177 11.1782 0.258557 11.1782 0.489591V1.92009C11.1782 2.15152 11.3657 2.33906 11.5968 2.33906H13.0277C13.2591 2.33906 13.4466 2.15112 13.4466 1.92009V0.489591C13.4466 0.258557 13.2591 0.0706177 13.0277 0.0706177Z" fill="#424750"/>
<path d="M26.5034 3.44077H25.0626C24.8295 3.44077 24.6408 3.6299 24.6408 3.86293V12.1578C24.6408 12.3908 24.8295 12.5796 25.0626 12.5796H26.5034C26.7369 12.5796 26.9256 12.3908 26.9256 12.1578V3.86293C26.9256 3.6299 26.7369 3.44077 26.5034 3.44077Z" fill="#424750"/>
<path d="M26.6375 0.0706177H25.2066C24.9752 0.0706177 24.788 0.258557 24.788 0.489591V1.92009C24.788 2.15152 24.9756 2.33906 25.2066 2.33906H26.6375C26.8693 2.33906 27.0565 2.15112 27.0565 1.92009V0.489591C27.0565 0.258557 26.8689 0.0706177 26.6375 0.0706177Z" fill="#424750"/>
<path d="M34.5545 3.43239H31.4916V2.2848H32.6005C32.6025 2.2848 32.6045 2.2844 32.6065 2.2844H33.0546H33.9843H34.5553C34.7879 2.2844 34.9771 2.09527 34.9771 1.86264V0.422565C34.9771 0.189535 34.7883 0.000399412 34.5553 0.000399412H33.9843H33.0546H32.6033C32.6025 0.000399412 32.6013 0 32.6001 0H32.3543C32.1416 0 31.9341 0.0215476 31.733 0.0602528C31.6193 0.0877853 31.5072 0.120904 31.3994 0.160806C31.1648 0.244601 30.9438 0.353534 30.7379 0.484812C29.8173 1.07137 29.206 2.10125 29.206 3.27438V3.4292H28.4862C28.2531 3.4292 28.064 3.61833 28.064 3.85136V5.29104C28.064 5.52407 28.2531 5.7132 28.4862 5.7132H29.206V12.147C29.206 12.3797 29.3963 12.5696 29.629 12.5696H31.0683C31.3013 12.5696 31.4912 12.3797 31.4912 12.147V6.13896C31.4912 6.12779 31.4916 5.92269 31.4928 5.71959H33.0721V5.71719H34.5541C34.7867 5.71719 34.9767 5.52925 34.9767 5.29622V3.85535C34.9771 3.62232 34.7871 3.43239 34.5545 3.43239Z" fill="#424750"/>
<path d="M45.2587 3.76438C45.194 3.57684 45.0193 3.44516 44.8102 3.44516H43.4032C43.1702 3.44516 42.9795 3.63549 42.9795 3.86892V10.2988H39.3851C38.8412 10.2988 38.4051 9.86224 38.4051 9.32156V3.86892C38.4051 3.6347 38.2151 3.44516 37.9813 3.44516H36.5404C36.3062 3.44516 36.1167 3.6347 36.1167 3.86892V9.31558C36.1167 10.8734 37.1952 12.1818 38.6481 12.5349C38.8512 12.572 39.0571 12.5931 39.2722 12.5931H42.9795V12.6486C42.9795 12.8302 42.9459 13.0109 42.857 13.1709C42.6694 13.5089 42.3099 13.7391 41.8921 13.7391H39.0774C38.4833 13.7391 38.1828 14.4546 38.599 14.8787C38.925 15.2103 39.257 15.5487 39.5028 15.8013C39.6269 15.9286 39.7973 16 39.976 16H41.9017C42.3039 16 42.6914 15.9294 43.0477 15.8005C44.3533 15.3272 45.2687 14.0647 45.2687 12.5844V3.83501C45.2683 3.81027 45.2651 3.78593 45.2587 3.76438Z" fill="#424750"/>
</svg>
