<svg width="71" height="17" viewBox="0 0 71 17" fill="none" xmlns="http://www.w3.org/2000/svg">
<g clip-path="url(#clip0_3913_7701)">
<path d="M42.8103 12.4296V0.310962L43.7948 0.306641C44.1324 0.306641 44.4563 0.441876 44.6949 0.682435C44.9337 0.923108 45.0678 1.24943 45.0678 1.58974V15.0128C45.0678 15.3531 44.9337 15.6794 44.6949 15.9201C44.4563 16.1608 44.1324 16.2959 43.7948 16.2959H42.8103V16.2788L33.7887 4.16013V16.3044H32.8041C32.4665 16.3044 32.1427 16.1693 31.904 15.9286C31.6653 15.6881 31.5312 15.3617 31.5312 15.0213V1.59406C31.5312 1.25375 31.6653 0.927431 31.904 0.686758C32.1427 0.446085 32.4665 0.310962 32.8041 0.310962H33.7887L42.8103 12.4296Z" fill="#424750"/>
<path d="M8.03079 7.18189H12.2594C12.4267 7.18098 12.5923 7.2134 12.7471 7.27709C12.9018 7.34079 13.0427 7.43451 13.1615 7.55314C13.2803 7.67165 13.3747 7.81258 13.4395 7.96795C13.5042 8.12331 13.538 8.29005 13.5388 8.4585V15.0235C13.5388 15.3639 13.4047 15.6902 13.166 15.9308C12.9273 16.1714 12.6034 16.3066 12.2659 16.3066H1.27307C0.935424 16.3066 0.611675 16.1714 0.372903 15.9308C0.134131 15.6902 0 15.3639 0 15.0235V1.62822C0 1.28803 0.134131 0.961594 0.372903 0.721035C0.611675 0.480362 0.935424 0.345239 1.27307 0.345239H12.2403C12.5744 0.345125 12.8949 0.477405 13.1331 0.713415C13.3712 0.949424 13.5079 1.27028 13.5134 1.60684L13.5262 2.62481H2.25121V14.0228H11.2665V9.46362H6.75783V8.46487C6.75783 8.12468 6.89196 7.79825 7.13062 7.55769C7.36939 7.31701 7.69314 7.18189 8.03079 7.18189Z" fill="#424750"/>
<path d="M68.9885 0.377172H62.057C61.7191 0.37831 61.397 0.514 61.1586 0.754559C60.9213 0.995005 60.788 1.32075 60.788 1.66027V13.9864L60.7835 13.9865V14.9851C60.7835 15.3254 60.9169 15.6517 61.1564 15.8924C61.3949 16.133 61.7192 16.2682 62.0559 16.2682H68.9841C69.3219 16.2682 69.6451 16.133 69.8835 15.8924C70.1231 15.6517 70.2564 15.3254 70.2564 14.9851V13.9865H63.0105L63.0107 2.6589H70.2609V1.66027C70.2609 1.31996 70.1275 0.99364 69.888 0.752967C69.6495 0.512408 69.3252 0.377172 68.9885 0.377172Z" fill="#424750"/>
<path d="M57.3575 0.345239H53.1498C52.9812 0.345239 52.8143 0.378906 52.6587 0.444534C52.5031 0.510048 52.3621 0.606043 52.2436 0.727062C52.1252 0.847967 52.0318 0.991507 51.9688 1.14915C51.9058 1.30679 51.8746 1.47547 51.8768 1.6454L51.8938 2.62481H56.3642V14.0185H48.6199C48.2823 14.0185 47.9585 14.1537 47.7197 14.3943C47.481 14.6349 47.347 14.9612 47.347 15.3015V16.3003H57.3553C57.6931 16.3003 58.0163 16.165 58.2548 15.9245C58.4943 15.6838 58.6277 15.3575 58.6277 15.0172V1.62617C58.6277 1.28655 58.4932 0.961139 58.2548 0.721034C58.0175 0.48093 57.6943 0.345807 57.3575 0.345239Z" fill="#424750"/>
<path d="M17.0205 0.345239H28.0068C28.343 0.345239 28.6655 0.479225 28.904 0.717964C29.1425 0.956703 29.2776 1.28086 29.2799 1.61969V15.0129C29.2799 15.3532 29.1457 15.6795 28.907 15.9202C28.6682 16.1607 28.3444 16.296 28.0068 16.296H27.0245V2.65472H18.0049V16.3023H17.0205C16.6828 16.3023 16.3589 16.1672 16.1203 15.9265C15.8815 15.686 15.7474 15.3595 15.7474 15.0193V1.62822C15.7474 1.28803 15.8815 0.961594 16.1203 0.721034C16.3589 0.480362 16.6828 0.345239 17.0205 0.345239Z" fill="#424750"/>
<path d="M70.2571 7.1821H65.2749V9.46167H70.2571V7.1821Z" fill="#424750"/>
</g>
<defs>
<clipPath id="clip0_3913_7701">
<rect width="70.2609" height="16" fill="white" transform="translate(0 0.306641)"/>
</clipPath>
</defs>
</svg>
