<svg width="96" height="12" viewBox="0 0 96 12" fill="none" xmlns="http://www.w3.org/2000/svg">
<path d="M58.307 0.00779359H49.4945V3.00477H58.307V0.00779359Z" fill="#424750"/>
<path d="M0.000133805 2.84443C-0.0045229 2.3418 0.113067 1.84732 0.340153 1.41462C0.561067 0.992053 0.873791 0.639757 1.24889 0.390888C1.6332 0.135728 2.07204 0.00358332 2.5181 0.00869682H10.6112V2.99458H3.26554C3.18416 2.99282 3.10335 3.01002 3.02816 3.04511C2.95296 3.08019 2.88502 3.13241 2.82858 3.19847C2.77113 3.26235 2.72575 3.33866 2.69516 3.42282C2.66458 3.50697 2.64943 3.59723 2.65062 3.68816V3.77347C2.64908 3.86778 2.6649 3.96142 2.69709 4.0485C2.72929 4.13557 2.77715 4.21418 2.83767 4.27936C2.89576 4.34609 2.9652 4.39891 3.04185 4.43468C3.11849 4.47045 3.20075 4.48842 3.28371 4.48752H8.03945C8.49388 4.48239 8.94082 4.61815 9.33137 4.87995C9.71587 5.13568 10.0366 5.49698 10.2636 5.93013C10.4968 6.3722 10.6173 6.87814 10.6119 7.39236V9.04483C10.6172 9.56229 10.4954 10.0713 10.2598 10.5156C10.0309 10.95 9.70848 11.3124 9.32228 11.5692C8.92869 11.831 8.47909 11.9667 8.02203 11.9616H0.000889516V8.97573H7.29655C7.3853 8.97911 7.47375 8.96234 7.55663 8.92641C7.6395 8.89049 7.71512 8.83614 7.77896 8.76661C7.84281 8.69708 7.89358 8.61378 7.92826 8.52168C7.96293 8.42959 7.9808 8.33058 7.9808 8.23054C7.9808 8.1305 7.96293 8.03148 7.92826 7.93938C7.89358 7.84729 7.84281 7.764 7.77896 7.69446C7.71512 7.62493 7.6395 7.57058 7.55663 7.53466C7.47375 7.49873 7.3853 7.48196 7.29655 7.48535H2.38254C1.96087 7.48966 1.54614 7.3643 1.18301 7.12278C0.826134 6.88712 0.528889 6.55226 0.319705 6.15023C0.106072 5.73967 -0.0043941 5.27137 0.000133805 4.79549V2.84443ZM17.6539 3.7402L20.3044 0.00698894H22.9549V11.9599H20.3044V4.48581L17.6539 8.2267L15.0034 4.48581V11.9599H12.3454V0.00698894H15.0034L17.6539 3.7402ZM28.7595 0.00698894H31.4099L35.3917 11.9599H32.7412L30.0908 4.48581L27.4403 11.9599H24.7822L28.7595 0.00698894ZM45.0145 0.00698894C45.4999 0.000944758 45.9775 0.144305 46.3958 0.421601C46.8055 0.693688 47.1471 1.07852 47.3886 1.54003C47.6364 2.01161 47.7647 2.55068 47.7597 3.09866V4.38856C47.7649 4.93575 47.6365 5.47405 47.3886 5.94463C47.1464 6.40532 46.8049 6.78971 46.3958 7.0622C45.9784 7.34228 45.5004 7.48695 45.0145 7.48023H43.7779L47.7597 11.9599H43.784L39.8135 7.48023V11.9599H37.1486V4.47302H39.8135V4.48581H44.5374C44.6123 4.48593 44.6863 4.46941 44.7555 4.43721C44.8246 4.405 44.8874 4.35776 44.9403 4.29816C44.9932 4.23857 45.0352 4.1678 45.0638 4.08992C45.0924 4.01203 45.107 3.92855 45.1069 3.84428V3.63612C45.107 3.55184 45.0924 3.46836 45.0638 3.39048C45.0352 3.31259 44.9932 3.24183 44.9403 3.18223C44.8874 3.12264 44.8246 3.07538 44.7555 3.04318C44.6863 3.01098 44.6123 2.99447 44.5374 2.99458H37.1486V0.00869682L45.0145 0.00698894Z" fill="#424750"/>
<path d="M89.3677 11.9667H86.7172V0.00695413H89.3677V4.48578H93.3495V0.00695413H96V11.9599H93.3495V7.48104H89.3677V11.9667ZM53.5043 11.9667V3.00307L58.1116 0.00695413H60.1374V3.00137H56.1556V11.9667H53.5043ZM72.5311 11.9599H61.92V4.48578H72.5311V7.4802H64.5728V8.97143H72.5311V11.9599ZM84.9997 11.953H76.8468C76.412 11.958 75.9842 11.8294 75.6094 11.5811C75.2423 11.3375 74.9363 10.9925 74.7204 10.5787C74.4999 10.1567 74.3855 9.67515 74.3894 9.18556V4.47981H77.0399V7.38038C77.0367 7.58847 77.0716 7.79508 77.1423 7.98735C77.2131 8.17961 77.3182 8.35342 77.4511 8.49796C77.5804 8.64819 77.7357 8.76685 77.9074 8.84654C78.0791 8.92624 78.2635 8.96526 78.4492 8.96119H84.9975V11.9471L84.9997 11.953ZM72.5311 2.9954H61.92V0.00951335H72.5311V2.9954ZM84.9997 2.98857H74.3894V2.87852C74.3858 2.37012 74.5051 1.8702 74.7348 1.4325C74.9605 1.00239 75.2791 0.6435 75.6609 0.389148C76.0505 0.129727 76.4957 -0.00479185 76.9483 0.000130396H85.0035V2.98601L84.9997 2.98857Z" fill="#81858B"/>
</svg>
