<svg width="61" height="16" viewBox="0 0 61 16" fill="none" xmlns="http://www.w3.org/2000/svg">
<path d="M0.5 11.5791C0.5 11.8036 0.587655 11.8935 0.806793 11.8935H2.77904C2.99817 11.8935 3.12966 11.8036 3.12966 11.5791L3.74324 6.10005L5.32104 11.624C5.32104 11.6689 5.36486 11.7138 5.40869 11.8036C5.45252 11.8486 5.54018 11.8935 5.584 11.8935H7.42476C7.46859 11.8935 7.55625 11.8486 7.60007 11.8036C7.6439 11.7587 7.68773 11.6689 7.68773 11.624L9.26552 6.10005L9.87911 11.5791C9.87911 11.8036 10.0106 11.8935 10.2297 11.8935H12.202C12.4211 11.8935 12.5088 11.8036 12.5088 11.624V11.5791C12.3335 9.91742 12.202 8.25574 12.0267 6.59407C11.8514 4.93239 11.676 3.31562 11.5446 1.60903C11.5446 1.51921 11.5007 1.42939 11.4131 1.38448C11.3254 1.33957 11.2816 1.29466 11.1939 1.29466H8.82725C8.65194 1.29466 8.52045 1.38449 8.47663 1.56413L6.59204 8.03119L4.70745 1.56413C4.66362 1.38449 4.53214 1.29466 4.35683 1.29466H1.81483C1.72717 1.29466 1.63952 1.33957 1.59569 1.38448C1.55186 1.42939 1.50804 1.51921 1.50804 1.60903L0.5 11.5791ZM22.6329 3.31562C22.6329 3.2258 22.6329 3.13598 22.5891 3.09107C22.5453 3.04616 22.5015 2.95634 22.4576 2.91143C22.4138 2.86652 22.3262 2.82161 22.2823 2.82161C22.1947 2.82161 22.1508 2.82161 22.107 2.82161H21.0552C20.9675 2.82161 20.8798 2.82161 20.836 2.82161C20.7922 2.82161 20.7484 2.86652 20.7045 2.91143C20.6607 2.95634 20.6169 3.00125 20.6169 3.09107C20.573 3.18089 20.5292 3.27071 20.4854 3.36053L20.2663 3.98927C20.1348 3.80963 20.0033 3.62999 19.828 3.49526C19.6527 3.31562 19.4774 3.18089 19.2582 3.09107C19.0391 2.95634 18.8199 2.86652 18.557 2.82161C18.294 2.7767 18.031 2.73179 17.7681 2.73179C17.1545 2.73179 16.5409 2.86652 16.015 3.09107C15.4452 3.31562 14.9631 3.6749 14.5687 4.07909C14.1742 4.48329 13.8236 4.9773 13.6045 5.56113C13.3853 6.14496 13.2538 6.7288 13.2538 7.40245C13.2538 7.85155 13.2977 8.25574 13.4291 8.65993C13.5168 9.06412 13.6921 9.4234 13.8674 9.78269C14.0427 10.142 14.3057 10.4563 14.5687 10.7258C14.8316 10.9953 15.1384 11.2647 15.489 11.4444C15.8397 11.624 16.1903 11.8036 16.5847 11.8935C16.9792 11.9833 17.3736 12.0731 17.8119 12.0731C18.031 12.0731 18.294 12.0282 18.5131 11.9833C18.7323 11.9384 18.9514 11.8486 19.1267 11.7587C19.302 11.6689 19.4774 11.5342 19.6527 11.4444C19.828 11.3096 19.9595 11.1749 20.0909 11.0851L20.1786 11.3995C20.2224 11.4893 20.2224 11.5342 20.2663 11.624C20.3101 11.7138 20.3101 11.7587 20.3539 11.8036C20.3977 11.8486 20.4416 11.8935 20.4854 11.8935C20.5292 11.9384 20.6169 11.9384 20.7045 11.9384H22.0632C22.107 11.9384 22.1947 11.9384 22.2385 11.9384C22.3261 11.9384 22.37 11.8935 22.4138 11.8486C22.4576 11.8036 22.5453 11.7587 22.5453 11.6689C22.5891 11.5791 22.5891 11.5342 22.5891 11.4444V3.31562H22.6329ZM15.9273 6.50425C16.015 6.23479 16.1465 5.96532 16.3218 5.78568C16.4971 5.56113 16.7162 5.4264 16.9792 5.29167C17.2421 5.15694 17.5051 5.11203 17.8119 5.11203C18.1187 5.11203 18.4255 5.15694 18.6885 5.29167C18.9514 5.4264 19.1706 5.56113 19.3897 5.78568C19.565 6.01023 19.7403 6.23479 19.8718 6.50425C20.0033 6.77371 20.0471 7.08808 20.0471 7.35754C20.0471 7.67191 20.0033 7.94137 19.8718 8.25574C19.7403 8.5252 19.6088 8.74976 19.3897 8.97431C19.2144 9.15395 18.9514 9.33359 18.6885 9.46832C18.4255 9.60305 18.1187 9.64796 17.8119 9.64796C17.5051 9.64796 17.2421 9.60305 16.9792 9.46832C16.7162 9.33359 16.5409 9.19886 16.3218 8.97431C16.1465 8.79467 16.015 8.5252 15.9273 8.25574C15.8397 7.98628 15.7958 7.67191 15.7958 7.35754C15.752 7.04317 15.8397 6.77371 15.9273 6.50425ZM30.3466 12.118C30.2151 12.2977 30.0398 12.4324 29.8207 12.5222C29.6454 12.612 29.4262 12.7019 29.2071 12.7917C28.9879 12.8366 28.7688 12.8815 28.5497 12.8815C28.4182 12.8815 28.2867 12.8815 28.1114 12.8815C27.9361 12.8815 27.8046 12.8366 27.6293 12.7917C27.454 12.7468 27.3225 12.7018 27.1472 12.612C27.0157 12.5222 26.8842 12.4324 26.7527 12.3426C26.6213 12.2078 26.4898 12.1629 26.3583 12.1629C26.3145 12.1629 26.2268 12.1629 26.183 12.2078C26.1392 12.2528 26.0515 12.2977 26.0077 12.3875L25.3503 13.3306C25.2626 13.4653 25.2188 13.6001 25.2188 13.6899C25.2188 13.7797 25.2626 13.8695 25.3064 13.9593C25.3503 14.0492 25.3941 14.0941 25.4817 14.139C25.7009 14.3186 25.92 14.4983 26.183 14.633C26.4459 14.7677 26.7089 14.9024 27.0157 14.9923C27.2787 15.0821 27.5855 15.1719 27.8923 15.2168C28.1991 15.2617 28.462 15.3066 28.6812 15.3066C29.3386 15.3066 29.9083 15.2168 30.4781 14.9923C31.0478 14.7677 31.5299 14.4983 31.9244 14.0941C32.3188 13.6899 32.6695 13.1959 32.8886 12.612C33.1077 12.0282 33.2392 11.3545 33.2392 10.636V3.31562C33.2392 3.2258 33.2392 3.13598 33.1954 3.09107C33.1516 3.04616 33.1077 2.95634 33.0639 2.91143C33.0201 2.86652 32.9324 2.82161 32.8886 2.82161C32.8448 2.7767 32.7571 2.7767 32.7133 2.7767H31.6614C31.5738 2.7767 31.4861 2.7767 31.4423 2.82161C31.3985 2.86652 31.3546 2.86652 31.3108 2.91143C31.267 2.95634 31.2232 3.00125 31.2232 3.09107C31.1793 3.13598 31.1793 3.2258 31.1355 3.31562L30.9602 3.94436C30.8287 3.76472 30.6534 3.58508 30.5219 3.45035C30.3466 3.31562 30.1713 3.13598 29.996 3.04616C29.8207 2.91143 29.6015 2.82161 29.3386 2.7767C29.1194 2.73179 28.8565 2.68688 28.5497 2.68688C27.9361 2.68688 27.3663 2.82161 26.7966 3.04616C26.2706 3.27071 25.7885 3.63 25.3941 4.03419C24.9996 4.43838 24.6928 4.93239 24.4737 5.51622C24.2546 6.10005 24.1669 6.68389 24.1669 7.35754C24.1669 8.03119 24.2546 8.61502 24.4737 9.15395C24.6928 9.69287 24.9996 10.1869 25.3941 10.5462C25.7885 10.9504 26.2268 11.2647 26.7966 11.4444C27.3225 11.6689 27.8923 11.7587 28.5497 11.7587C28.8126 11.7587 29.0756 11.7138 29.2947 11.6689C29.5139 11.5791 29.6892 11.4893 29.8645 11.3995C30.0398 11.3096 30.1713 11.1749 30.3466 11.0402C30.4781 10.9054 30.6096 10.7707 30.7411 10.5911C30.7411 10.636 30.7411 10.6809 30.7411 10.6809V10.7258V10.7707C30.7411 10.7707 30.7411 10.8156 30.7411 10.8605C30.7411 10.9953 30.7411 11.0851 30.7411 11.2198C30.7411 11.3545 30.6972 11.4444 30.6972 11.5342C30.6096 11.7587 30.5219 11.9384 30.3466 12.118ZM26.8404 6.45934C26.928 6.18987 27.0595 5.96532 27.2348 5.74077C27.4102 5.51622 27.6293 5.38149 27.8923 5.24676C28.1552 5.11203 28.4182 5.06712 28.725 5.06712C29.0318 5.06712 29.2947 5.11203 29.5577 5.24676C29.8207 5.38149 30.0398 5.51622 30.2589 5.69586C30.4343 5.8755 30.6096 6.10005 30.7411 6.36952C30.8725 6.63898 30.9164 6.90844 30.9602 7.1779V7.40245C30.9602 7.71682 30.8725 7.98628 30.7411 8.25574C30.6096 8.5252 30.4781 8.74975 30.2589 8.9294C30.0836 9.10904 29.8207 9.28868 29.5577 9.3785C29.2947 9.46832 29.0318 9.55814 28.725 9.55814C28.4182 9.55814 28.1552 9.51323 27.8923 9.3785C27.6293 9.24377 27.454 9.10904 27.2348 8.9294C27.0595 8.74975 26.928 8.48029 26.8404 8.21083C26.7527 7.94137 26.7089 7.627 26.7089 7.31263C26.7089 7.04316 26.7527 6.7288 26.8404 6.45934ZM35.1676 2.95634C35.08 3.00125 35.0362 3.04616 34.9923 3.13598C34.9485 3.2258 34.9485 3.31562 34.9485 3.40544V11.3545C34.9485 11.5342 34.9923 11.6689 35.08 11.7587C35.1676 11.8486 35.2991 11.8935 35.5183 11.8935H37.0961C37.1837 11.8935 37.2275 11.8935 37.2714 11.8935C37.3152 11.8935 37.4029 11.8486 37.4467 11.8036C37.4905 11.7587 37.5343 11.7138 37.5782 11.624C37.622 11.5342 37.622 11.4444 37.622 11.3995V6.77371C37.622 6.54915 37.7096 6.36951 37.7973 6.18987C37.885 6.01023 38.0164 5.83059 38.1479 5.69586C38.2794 5.56113 38.4547 5.47131 38.63 5.38149C38.8053 5.29167 38.9806 5.24676 39.156 5.24676C39.3313 5.24676 39.5504 5.29167 39.7257 5.38149C39.901 5.47131 40.0763 5.56113 40.2078 5.69586C40.3393 5.83059 40.4708 6.01023 40.5584 6.18987C40.6461 6.36951 40.6899 6.54915 40.6899 6.77371V11.3995C40.6899 11.5791 40.7337 11.7138 40.8214 11.8036C40.9091 11.8935 41.0405 11.8935 41.2159 11.8935H42.8375C43.0128 11.8935 43.1443 11.8486 43.1881 11.7587C43.2757 11.6689 43.3196 11.5342 43.3196 11.3545V6.68389C43.3196 6.14496 43.2319 5.60604 43.1004 5.15694C42.969 4.66293 42.7498 4.25874 42.443 3.89946C42.1362 3.54017 41.7856 3.27071 41.3912 3.04616C40.9967 2.82161 40.5146 2.73179 39.9887 2.73179C39.6381 2.73179 39.2874 2.7767 38.9806 2.86652C38.6739 2.95634 38.4109 3.04616 38.1917 3.18089C37.9726 3.31562 37.7535 3.45036 37.622 3.58509C37.4467 3.71982 37.359 3.89946 37.2714 4.03419L37.1399 3.40544C37.0961 3.31562 37.0961 3.27071 37.0522 3.18089C37.0084 3.13598 37.0084 3.04616 36.9646 3.00125C36.9207 2.95634 36.8769 2.91143 36.8331 2.86652C36.7893 2.82161 36.7016 2.82161 36.614 2.82161H35.5621C35.5183 2.82161 35.4306 2.82161 35.3868 2.82161C35.2553 2.86652 35.2115 2.91143 35.1676 2.95634ZM52.5672 10.5911C52.611 10.5013 52.6549 10.4563 52.6549 10.3665C52.6549 10.3216 52.6549 10.2767 52.6549 10.2318C52.6549 10.1869 52.611 10.142 52.5672 10.0522L51.8221 9.19886C51.7345 9.10904 51.6906 9.06413 51.603 9.01921C51.5592 8.9743 51.4715 8.97431 51.4277 8.97431C51.3839 8.97431 51.2962 8.9743 51.2524 9.01921C51.2085 9.06413 51.1209 9.10904 51.0771 9.15395C50.9894 9.24377 50.9018 9.33359 50.7264 9.3785C50.595 9.46832 50.4197 9.51323 50.2882 9.60305C50.1129 9.64796 49.9375 9.69287 49.7622 9.73778C49.5869 9.78269 49.4116 9.78269 49.2363 9.78269C49.061 9.78269 48.8419 9.73778 48.6665 9.69287C48.4474 9.64796 48.2721 9.55814 48.0968 9.42341C47.9215 9.28868 47.7462 9.15395 47.6147 8.9294C47.4832 8.70484 47.3955 8.4803 47.3517 8.16592H52.3481C52.6549 8.16592 52.874 8.16592 53.0055 8.12101C53.137 8.0761 53.2684 8.03119 53.3123 7.94137C53.3561 7.85155 53.3999 7.71682 53.3999 7.58209C53.3999 7.44736 53.3999 7.22281 53.3999 6.99826C53.3999 6.45933 53.3561 6.3246 53.2246 5.8755C53.137 5.51622 52.9617 5.20185 52.7863 4.88748C52.611 4.57311 52.3481 4.30365 52.0851 4.03419C51.8221 3.76473 51.5153 3.54018 51.2085 3.36053C50.9018 3.18089 50.5511 3.04616 50.2005 2.91143C49.8499 2.82161 49.4554 2.7767 49.061 2.7767C48.6227 2.7767 48.2283 2.82161 47.8776 2.95634C47.4832 3.09107 47.1326 3.2258 46.8258 3.45035C46.519 3.6749 46.2122 3.89945 45.9492 4.16891C45.6863 4.43837 45.4671 4.75275 45.2918 5.11203C45.1165 5.47131 44.985 5.83059 44.8535 6.18987C44.7659 6.59406 44.7221 6.99826 44.7221 7.40245C44.7221 8.0761 44.8535 8.70484 45.1165 9.24376C45.3795 9.8276 45.6863 10.3216 46.1245 10.7258C46.5628 11.13 47.0449 11.4893 47.6147 11.7138C48.1844 11.9384 48.798 12.0731 49.4116 12.0731C49.9814 12.0731 50.5073 11.9833 51.0332 11.7587C51.5592 11.5342 51.9974 11.2647 52.3919 10.8605C52.4357 10.7258 52.5234 10.6809 52.5672 10.5911ZM49.6746 4.9773C49.8499 5.02221 50.0252 5.15694 50.1567 5.24676C50.2882 5.38149 50.4196 5.51622 50.5511 5.65095C50.6826 5.78568 50.7703 5.96532 50.8579 6.14497H47.3079C47.3955 5.96532 47.4832 5.83059 47.6147 5.65095C47.7462 5.51622 47.8776 5.33658 48.0091 5.24676C48.1406 5.11203 48.3159 5.02221 48.4912 4.93239C48.6665 4.84257 48.8419 4.84257 49.0172 4.84257C49.2801 4.84257 49.4993 4.88748 49.6746 4.9773ZM55.5913 2.82161H54.0573C53.7067 2.82161 53.5314 3.00125 53.5314 3.36053V4.75275C53.5314 5.15694 53.7067 5.33658 54.0573 5.33658H55.5913V11.3545C55.5913 11.7138 55.7666 11.8935 56.1172 11.8935H57.695C57.8703 11.8935 58.0018 11.8486 58.1333 11.7587C58.221 11.6689 58.2648 11.5342 58.2648 11.3545V5.33658H60.0179C60.1494 5.33658 60.2809 5.29167 60.3685 5.20185C60.4562 5.11203 60.5 4.9773 60.5 4.75275V3.36053C60.5 3.18089 60.4562 3.04616 60.3685 2.95634C60.2809 2.86652 60.1494 2.82161 60.0179 2.82161H58.2648V0.845562C58.2648 0.665921 58.221 0.531193 58.1771 0.441373C58.1333 0.351552 58.0018 0.306641 57.8265 0.306641H57.7827C57.7827 0.306641 57.7389 0.306641 57.695 0.306641L56.1172 0.890474C55.9419 0.935385 55.8104 1.02521 55.7228 1.11503C55.6351 1.20485 55.5913 1.29466 55.5913 1.4294V2.82161Z" fill="#424750"/>
</svg>
