<svg xmlns="http://www.w3.org/2000/svg" viewBox="0 0 448 512"><!--! Font Awesome Pro 6.4.2 by @fontawesome - https://fontawesome.com License - https://fontawesome.com/license (Commercial License) Copyright 2023 Fonticons, Inc. --><path class="fa-primary" style="fill:var(--fa-primary-color,inherit);opacity:var(--fa-primary-opacity,1);" d="M204 7c11.7-9.3 28.3-9.3 40 0L404 135c13.8 11 16 31.2 5 45s-31.2 16-45 5L224 73 84 185c-13.8 11-33.9 8.8-45-5s-8.8-33.9 5-45L204 7z"/><path class="fa-secondary" style="fill:var(--fa-secondary-color,inherit);opacity:var(--fa-secondary-opacity,.4);" d="M204 505c11.7 9.4 28.3 9.4 40 0L404 377c13.8-11 16-31.2 5-45s-31.2-16-45-5L224 439 84 327c-13.8-11-33.9-8.8-45 5s-8.8 33.9 5 45L204 505z"/></svg>