<svg xmlns="http://www.w3.org/2000/svg" viewBox="0 0 512 512"><!--! Font Awesome Pro 6.4.2 by @fontawesome - https://fontawesome.com License - https://fontawesome.com/license (Commercial License) Copyright 2023 Fonticons, Inc. --><path class="fa-primary" style="fill:var(--fa-primary-color,inherit);opacity:var(--fa-primary-opacity,1);" d="M182.6 137.4c-12.5-12.5-32.8-12.5-45.3 0l-128 128c-12.5 12.5-12.5 32.8 0 45.3l128 128c12.5 12.5 32.8 12.5 45.3 0s12.5-32.8 0-45.3L77.3 288 182.6 182.6c12.5-12.5 12.5-32.8 0-45.3z"/><path class="fa-secondary" style="fill:var(--fa-secondary-color,inherit);opacity:var(--fa-secondary-opacity,.4);" d="M448 64c0-17.7 14.3-32 32-32s32 14.3 32 32V224c0 53-43 96-96 96H109.3l-32-32 32-32H416c17.7 0 32-14.3 32-32V64z"/></svg>