<svg xmlns="http://www.w3.org/2000/svg" viewBox="0 0 512 512"><!--! Font Awesome Pro 6.4.2 by @fontawesome - https://fontawesome.com License - https://fontawesome.com/license (Commercial License) Copyright 2023 Fonticons, Inc. --><path class="fa-primary" style="fill:var(--fa-primary-color,inherit);opacity:var(--fa-primary-opacity,1);" d="M203.5 440.6c9.5 7.9 22.8 9.7 34.1 4.4s18.4-16.6 18.4-29V96c0-12.4-7.2-23.7-18.4-29s-24.5-3.6-34.1 4.4l-192 160C4.2 237.5 0 246.5 0 256s4.2 18.5 11.5 24.6l192 160z"/><path class="fa-secondary" style="fill:var(--fa-secondary-color,inherit);opacity:var(--fa-secondary-opacity,.4);" d="M493.6 445c-11.2 5.3-24.5 3.6-34.1-4.4L256 271V241L459.5 71.4c9.5-7.9 22.8-9.7 34.1-4.4S512 83.6 512 96V416c0 12.4-7.2 23.7-18.4 29z"/></svg>