<svg xmlns="http://www.w3.org/2000/svg" viewBox="0 0 320 512"><!--! Font Awesome Pro 6.4.2 by @fontawesome - https://fontawesome.com License - https://fontawesome.com/license (Commercial License) Copyright 2023 Fonticons, Inc. --><path class="fa-primary" style="fill:var(--fa-primary-color,inherit);opacity:var(--fa-primary-opacity,1);" d="M301.6 445c-11.2 5.3-24.5 3.6-34.1-4.4l-192-160L64 271V241l11.5-9.6 192-160c9.5-7.9 22.8-9.7 34.1-4.4S320 83.6 320 96V416c0 12.4-7.2 23.7-18.4 29z"/><path class="fa-secondary" style="fill:var(--fa-secondary-color,inherit);opacity:var(--fa-secondary-opacity,.4);" d="M32 448c-17.7 0-32-14.3-32-32V96C0 78.3 14.3 64 32 64s32 14.3 32 32V416c0 17.7-14.3 32-32 32z"/></svg>