<svg xmlns="http://www.w3.org/2000/svg" viewBox="0 0 576 512"><!--! Font Awesome Pro 6.4.2 by @fontawesome - https://fontawesome.com License - https://fontawesome.com/license (Commercial License) Copyright 2023 Fonticons, Inc. --><path class="fa-primary" style="fill:var(--fa-primary-color,inherit);opacity:var(--fa-primary-opacity,1);" d="M176 328a80 80 0 1 0 0-160 80 80 0 1 0 0 160zm224 0a80 80 0 1 0 0-160 80 80 0 1 0 0 160z"/><path class="fa-secondary" style="fill:var(--fa-secondary-color,inherit);opacity:var(--fa-secondary-opacity,.4);" d="M288 160A80 80 0 1 0 288 0a80 80 0 1 0 0 160zM80 512a80 80 0 1 0 0-160 80 80 0 1 0 0 160zm288-80a80 80 0 1 0 -160 0 80 80 0 1 0 160 0zm128 80a80 80 0 1 0 0-160 80 80 0 1 0 0 160z"/></svg>