<svg xmlns="http://www.w3.org/2000/svg" viewBox="0 0 512 512"><!--! Font Awesome Pro 6.4.2 by @fontawesome - https://fontawesome.com License - https://fontawesome.com/license (Commercial License) Copyright 2023 Fonticons, Inc. --><path class="fa-primary" style="fill:var(--fa-primary-color,inherit);opacity:var(--fa-primary-opacity,1);" d="M480 368c0-123.7-100.3-224-224-224S32 244.3 32 368v32H480V368z"/><path class="fa-secondary" style="fill:var(--fa-secondary-color,inherit);opacity:var(--fa-secondary-opacity,.4);" d="M216 64c-13.3 0-24 10.7-24 24s10.7 24 24 24h16v33.3c7.9-.8 15.9-1.3 24-1.3s16.1 .4 24 1.3V112h16c13.3 0 24-10.7 24-24s-10.7-24-24-24H256 216zM480 400H32 24c-13.3 0-24 10.7-24 24s10.7 24 24 24H488c13.3 0 24-10.7 24-24s-10.7-24-24-24h-8z"/></svg>