<svg xmlns="http://www.w3.org/2000/svg" viewBox="0 0 640 512"><!--! Font Awesome Pro 6.4.2 by @fontawesome - https://fontawesome.com License - https://fontawesome.com/license (Commercial License) Copyright 2023 Fonticons, Inc. --><path class="fa-primary" style="fill:var(--fa-primary-color,inherit);opacity:var(--fa-primary-opacity,1);" d="M192 32H80C53.5 32 32 53.5 32 80V352c-17.7 0-32 14.3-32 32s14.3 32 32 32H80 560h48c17.7 0 32-14.3 32-32s-14.3-32-32-32V80c0-26.5-21.5-48-48-48H448V96h96V352H96V96h96V32zm64 64H384V32H256V96z"/><path class="fa-secondary" style="fill:var(--fa-secondary-color,inherit);opacity:var(--fa-secondary-opacity,.4);" d="M224 0c17.7 0 32 14.3 32 32v96c17.7 0 32 14.3 32 32s-14.3 32-32 32H224 192c-17.7 0-32-14.3-32-32s14.3-32 32-32V32c0-17.7 14.3-32 32-32zM416 0c17.7 0 32 14.3 32 32v96c17.7 0 32 14.3 32 32s-14.3 32-32 32H416 384c-17.7 0-32-14.3-32-32s14.3-32 32-32V32c0-17.7 14.3-32 32-32zM288 416h64v64c0 17.7-14.3 32-32 32s-32-14.3-32-32V416z"/></svg>