<svg xmlns="http://www.w3.org/2000/svg" viewBox="0 0 448 512"><!--! Font Awesome Pro 6.4.2 by @fontawesome - https://fontawesome.com License - https://fontawesome.com/license (Commercial License) Copyright 2023 Fonticons, Inc. --><path class="fa-primary" style="fill:var(--fa-primary-color,inherit);opacity:var(--fa-primary-opacity,1);" d="M0 96C0 43 43 0 96 0H384h32c17.7 0 32 14.3 32 32V352c0 17.7-14.3 32-32 32H352 256 96c-17.7 0-32 14.3-32 32s14.3 32 32 32H256h96 64c17.7 0 32 14.3 32 32s-14.3 32-32 32H384 96c-53 0-96-43-96-96V96z"/><path class="fa-secondary" style="fill:var(--fa-secondary-color,inherit);opacity:var(--fa-secondary-opacity,.4);" d="M64 416c0-17.7 14.3-32 32-32H416v64H96c-17.7 0-32-14.3-32-32z"/></svg>