<svg xmlns="http://www.w3.org/2000/svg" viewBox="0 0 576 512"><!--! Font Awesome Pro 6.4.2 by @fontawesome - https://fontawesome.com License - https://fontawesome.com/license (Commercial License) Copyright 2023 Fonticons, Inc. --><path class="fa-primary" style="fill:var(--fa-primary-color,inherit);opacity:var(--fa-primary-opacity,1);" d="M288 0c-53 0-96 43-96 96V320c0 53 43 96 96 96H512h32c17.7 0 32-14.3 32-32s-14.3-32-32-32V288c17.7 0 32-14.3 32-32V32c0-17.7-14.3-32-32-32H512 288zm0 288H480v64H288c-17.7 0-32-14.3-32-32s14.3-32 32-32z"/><path class="fa-secondary" style="fill:var(--fa-secondary-color,inherit);opacity:var(--fa-secondary-opacity,.4);" d="M160 96H96C43 96 0 139 0 192V416c0 53 43 96 96 96H320h32c17.7 0 32-14.3 32-32s-14.3-32-32-32H320 272 96c-17.7 0-32-14.3-32-32s14.3-32 32-32h74.8c-6.9-14.5-10.8-30.8-10.8-48V96z"/></svg>