<svg xmlns="http://www.w3.org/2000/svg" viewBox="0 0 448 512"><!--! Font Awesome Pro 6.4.2 by @fontawesome - https://fontawesome.com License - https://fontawesome.com/license (Commercial License) Copyright 2023 Fonticons, Inc. --><path class="fa-primary" style="fill:var(--fa-primary-color,inherit);opacity:var(--fa-primary-opacity,1);" d=""/><path class="fa-secondary" style="fill:var(--fa-secondary-color,inherit);opacity:var(--fa-secondary-opacity,.4);" d="M32 480a32 32 0 1 1 0-64 32 32 0 1 1 0 64zm96-64a32 32 0 1 1 0 64 32 32 0 1 1 0-64zm0-384a32 32 0 1 1 0 64 32 32 0 1 1 0-64zm0 256a32 32 0 1 1 0-64 32 32 0 1 1 0 64zM320 416a32 32 0 1 1 0 64 32 32 0 1 1 0-64zm0-320a32 32 0 1 1 0-64 32 32 0 1 1 0 64zm0 128a32 32 0 1 1 0 64 32 32 0 1 1 0-64zM224 480a32 32 0 1 1 0-64 32 32 0 1 1 0 64zm0-448a32 32 0 1 1 0 64 32 32 0 1 1 0-64zm0 256a32 32 0 1 1 0-64 32 32 0 1 1 0 64zM416 416a32 32 0 1 1 0 64 32 32 0 1 1 0-64zm0-384a32 32 0 1 1 0 64 32 32 0 1 1 0-64zM32 96a32 32 0 1 1 0-64 32 32 0 1 1 0 64zM416 224a32 32 0 1 1 0 64 32 32 0 1 1 0-64zM32 288a32 32 0 1 1 0-64 32 32 0 1 1 0 64zm192 32a32 32 0 1 1 0 64 32 32 0 1 1 0-64zm192 64a32 32 0 1 1 0-64 32 32 0 1 1 0 64zM32 320a32 32 0 1 1 0 64 32 32 0 1 1 0-64zM416 192a32 32 0 1 1 0-64 32 32 0 1 1 0 64zM32 128a32 32 0 1 1 0 64 32 32 0 1 1 0-64zm192 64a32 32 0 1 1 0-64 32 32 0 1 1 0 64z"/></svg>