<svg xmlns="http://www.w3.org/2000/svg" viewBox="0 0 448 512"><!--! Font Awesome Pro 6.4.2 by @fontawesome - https://fontawesome.com License - https://fontawesome.com/license (Commercial License) Copyright 2023 Fonticons, Inc. --><path class="fa-primary" style="fill:var(--fa-primary-color,inherit);opacity:var(--fa-primary-opacity,1);" d="M416 32c17.7 0 32 14.3 32 32l0 336c0 44.2-35.8 80-80 80L32 480c-17.7 0-32-14.3-32-32s14.3-32 32-32l336 0c8.8 0 16-7.2 16-16l0-336c0-17.7 14.3-32 32-32z"/><path class="fa-secondary" style="fill:var(--fa-secondary-color,inherit);opacity:var(--fa-secondary-opacity,.4);" d="M32 384a32 32 0 1 0 0-64 32 32 0 1 0 0 64zm0-96a32 32 0 1 0 0-64 32 32 0 1 0 0 64zM320 32a32 32 0 1 0 0 64 32 32 0 1 0 0-64zM128 32a32 32 0 1 0 0 64 32 32 0 1 0 0-64zm96 64a32 32 0 1 0 0-64 32 32 0 1 0 0 64zM32 32a32 32 0 1 0 0 64 32 32 0 1 0 0-64zm0 96a32 32 0 1 0 0 64 32 32 0 1 0 0-64z"/></svg>