<svg xmlns="http://www.w3.org/2000/svg" viewBox="0 0 576 512"><!--! Font Awesome Pro 6.4.2 by @fontawesome - https://fontawesome.com License - https://fontawesome.com/license (Commercial License) Copyright 2023 Fonticons, Inc. --><path class="fa-primary" style="fill:var(--fa-primary-color,inherit);opacity:var(--fa-primary-opacity,1);" d="M160 0H416c17.7 0 32 14.3 32 32V256H128V32c0-17.7 14.3-32 32-32zM32 512c-17.7 0-32-14.3-32-32V320H576V480c0 17.7-14.3 32-32 32H32z"/><path class="fa-secondary" style="fill:var(--fa-secondary-color,inherit);opacity:var(--fa-secondary-opacity,.4);" d="M48 160h80v64H80c-8.8 0-16 7.2-16 16s7.2 16 16 16h48H448h48c8.8 0 16-7.2 16-16s-7.2-16-16-16H448V160h80c26.5 0 48 21.5 48 48V320H0V208c0-26.5 21.5-48 48-48z"/></svg>