<svg xmlns="http://www.w3.org/2000/svg" viewBox="0 0 640 512"><!--! Font Awesome Pro 6.4.2 by @fontawesome - https://fontawesome.com License - https://fontawesome.com/license (Commercial License) Copyright 2023 Fonticons, Inc. --><path class="fa-primary" style="fill:var(--fa-primary-color,inherit);opacity:var(--fa-primary-opacity,1);" d="M32 320c-17.7 0-32 14.3-32 32s14.3 32 32 32v32c0 17.7 14.3 32 32 32H576c17.7 0 32-14.3 32-32V384c17.7 0 32-14.3 32-32s-14.3-32-32-32H32z"/><path class="fa-secondary" style="fill:var(--fa-secondary-color,inherit);opacity:var(--fa-secondary-opacity,.4);" d="M128 64c-35.3 0-64 28.7-64 64V320H448V64H128zm384 0H480V320h96V128c0-35.3-28.7-64-64-64z"/></svg>