<svg xmlns="http://www.w3.org/2000/svg" viewBox="0 0 512 512"><!--! Font Awesome Pro 6.4.2 by @fontawesome - https://fontawesome.com License - https://fontawesome.com/license (Commercial License) Copyright 2023 Fonticons, Inc. --><path class="fa-primary" style="fill:var(--fa-primary-color,inherit);opacity:var(--fa-primary-opacity,1);" d="M64 48c0-8.8 7.2-16 16-16h64c8.8 0 16 7.2 16 16V64H64V48zM0 416V160H512V416c0 35.3-28.7 64-64 64H64c-35.3 0-64-28.7-64-64zm256-16a96 96 0 1 0 0-192 96 96 0 1 0 0 192z"/><path class="fa-secondary" style="fill:var(--fa-secondary-color,inherit);opacity:var(--fa-secondary-opacity,.4);" d="M0 128v32H256 512V96c0-35.3-28.7-64-64-64H271.1c-9.9 0-19.7 2.3-28.6 6.8L192 64H64C28.7 64 0 92.7 0 128z"/></svg>