<svg xmlns="http://www.w3.org/2000/svg" viewBox="0 0 640 512"><!--! Font Awesome Pro 6.4.2 by @fontawesome - https://fontawesome.com License - https://fontawesome.com/license (Commercial License) Copyright 2023 Fonticons, Inc. --><path class="fa-primary" style="fill:var(--fa-primary-color,inherit);opacity:var(--fa-primary-opacity,1);" d="M0 32C0 14.3 14.3 0 32 0H48c44.2 0 80 35.8 80 80V368c0 8.8 7.2 16 16 16H608c17.7 0 32 14.3 32 32s-14.3 32-32 32H144c-44.2 0-80-35.8-80-80V80c0-8.8-7.2-16-16-16H32C14.3 64 0 49.7 0 32z"/><path class="fa-secondary" style="fill:var(--fa-secondary-color,inherit);opacity:var(--fa-secondary-opacity,.4);" d="M162.7 448c-1.8 5-2.7 10.4-2.7 16c0 26.5 21.5 48 48 48s48-21.5 48-48c0-5.6-1-11-2.7-16H162.7zm288 0c-1.8 5-2.7 10.4-2.7 16c0 26.5 21.5 48 48 48s48-21.5 48-48c0-5.6-1-11-2.7-16H450.7z"/></svg>