<svg xmlns="http://www.w3.org/2000/svg" viewBox="0 0 512 512"><!--! Font Awesome Pro 6.4.2 by @fontawesome - https://fontawesome.com License - https://fontawesome.com/license (Commercial License) Copyright 2023 Fonticons, Inc. --><path class="fa-primary" style="fill:var(--fa-primary-color,inherit);opacity:var(--fa-primary-opacity,1);" d="M32 96a32 32 0 1 0 0-64 32 32 0 1 0 0 64zM416 64a32 32 0 1 0 -64 0 32 32 0 1 0 64 0zm0 192a32 32 0 1 0 -64 0 32 32 0 1 0 64 0zm64-64a32 32 0 1 0 0-64 32 32 0 1 0 0 64zM160 160a32 32 0 1 0 -64 0 32 32 0 1 0 64 0zM64 256A32 32 0 1 0 0 256a32 32 0 1 0 64 0zM256 480a32 32 0 1 0 0-64 32 32 0 1 0 0 64z"/><path class="fa-secondary" style="fill:var(--fa-secondary-color,inherit);opacity:var(--fa-secondary-opacity,.4);" d="M256 32c17.7 0 32 14.3 32 32V273L468.5 423.4c13.6 11.3 15.4 31.5 4.1 45.1s-31.5 15.4-45.1 4.1L256 329.7 84.5 472.6c-13.6 11.3-33.8 9.5-45.1-4.1s-9.5-33.8 4.1-45.1L224 273V64c0-17.7 14.3-32 32-32z"/></svg>