<svg xmlns="http://www.w3.org/2000/svg" viewBox="0 0 512 512"><!--! Font Awesome Pro 6.4.2 by @fontawesome - https://fontawesome.com License - https://fontawesome.com/license (Commercial License) Copyright 2023 Fonticons, Inc. --><path class="fa-primary" style="fill:var(--fa-primary-color,inherit);opacity:var(--fa-primary-opacity,1);" d="M41.4 278.6c-12.5-12.5-12.5-32.8 0-45.3l192-192c12.5-12.5 32.8-12.5 45.3 0s12.5 32.8 0 45.3L109.3 256 278.6 425.4c12.5 12.5 12.5 32.8 0 45.3s-32.8 12.5-45.3 0l-192-192z"/><path class="fa-secondary" style="fill:var(--fa-secondary-color,inherit);opacity:var(--fa-secondary-opacity,.4);" d="M233.4 278.6c-12.5-12.5-12.5-32.8 0-45.3l192-192c12.5-12.5 32.8-12.5 45.3 0s12.5 32.8 0 45.3L301.3 256 470.6 425.4c12.5 12.5 12.5 32.8 0 45.3s-32.8 12.5-45.3 0l-192-192z"/></svg>