<svg xmlns="http://www.w3.org/2000/svg" viewBox="0 0 512 512"><!--! Font Awesome Pro 6.4.2 by @fontawesome - https://fontawesome.com License - https://fontawesome.com/license (Commercial License) Copyright 2023 Fonticons, Inc. --><path class="fa-primary" style="fill:var(--fa-primary-color,inherit);opacity:var(--fa-primary-opacity,1);" d="M304 224a48 48 0 1 1 -96 0 48 48 0 1 1 96 0zm-74 92.4l-29.6 25.4c-10.1 8.6-11.2 23.8-2.6 33.8s23.8 11.2 33.8 2.6l81.6-70C337.8 287.2 352 256.4 352 224c0-53-43-96-96-96s-96 43-96 96c0 44 29.6 81.1 70 92.4z"/><path class="fa-secondary" style="fill:var(--fa-secondary-color,inherit);opacity:var(--fa-secondary-opacity,.4);" d="M0 256a256 256 0 1 1 512 0A256 256 0 1 1 0 256zm256 16a48 48 0 1 1 0-96 48 48 0 1 1 0 96zm-26 44.4l-29.6 25.4c-10.1 8.6-11.2 23.8-2.6 33.8s23.8 11.2 33.8 2.6l81.6-70C337.8 287.2 352 256.4 352 224c0-53-43-96-96-96s-96 43-96 96c0 44 29.6 81.1 70 92.4z"/></svg>