<svg xmlns="http://www.w3.org/2000/svg" viewBox="0 0 512 512"><!--! Font Awesome Pro 6.4.2 by @fontawesome - https://fontawesome.com License - https://fontawesome.com/license (Commercial License) Copyright 2023 Fonticons, Inc. --><path class="fa-primary" style="fill:var(--fa-primary-color,inherit);opacity:var(--fa-primary-opacity,1);" d="M256 64a192 192 0 1 1 0 384 192 192 0 1 1 0-384zm0 448A256 256 0 1 0 256 0a256 256 0 1 0 0 512z"/><path class="fa-secondary" style="fill:var(--fa-secondary-color,inherit);opacity:var(--fa-secondary-opacity,.4);" d="M256 256L120.2 391.8C155 426.5 203 448 256 448s101-21.5 135.8-56.2L256 256zM391.8 120.2C357 85.5 309 64 256 64s-101 21.5-135.8 56.2L256 256 391.8 120.2z"/></svg>