<svg xmlns="http://www.w3.org/2000/svg" viewBox="0 0 640 512"><!--! Font Awesome Pro 6.4.2 by @fontawesome - https://fontawesome.com License - https://fontawesome.com/license (Commercial License) Copyright 2023 Fonticons, Inc. --><path class="fa-primary" style="fill:var(--fa-primary-color,inherit);opacity:var(--fa-primary-opacity,1);" d="M320 176a80 80 0 1 1 0 160 80 80 0 1 1 0-160zm0 240a160 160 0 1 0 0-320 160 160 0 1 0 0 320z"/><path class="fa-secondary" style="fill:var(--fa-secondary-color,inherit);opacity:var(--fa-secondary-opacity,.4);" d="M476.8 288c2.1-10.3 3.2-21 3.2-32s-1.1-21.7-3.2-32H608c17.7 0 32 14.3 32 32s-14.3 32-32 32H476.8zm-313.6 0H32c-17.7 0-32-14.3-32-32s14.3-32 32-32H163.2c-2.1 10.3-3.2 21-3.2 32s1.1 21.7 3.2 32z"/></svg>