<svg xmlns="http://www.w3.org/2000/svg" viewBox="0 0 448 512"><!--! Font Awesome Pro 6.4.2 by @fontawesome - https://fontawesome.com License - https://fontawesome.com/license (Commercial License) Copyright 2023 Fonticons, Inc. --><path class="fa-primary" style="fill:var(--fa-primary-color,inherit);opacity:var(--fa-primary-opacity,1);" d="M224 512c35.3 0 64-28.7 64-64H160c0 35.3 28.7 64 64 64z"/><path class="fa-secondary" style="fill:var(--fa-secondary-color,inherit);opacity:var(--fa-secondary-opacity,.4);" d="M112 96c-22 0-41.2 15-46.6 36.4l-64 256c-3.6 14.3-.4 29.5 8.7 41.2S33.2 448 48 448H400c14.8 0 28.7-6.8 37.8-18.5s12.3-26.8 8.7-41.2l-64-256C377.2 111 358 96 336 96V40c0-22.1-17.9-40-40-40H152c-22.1 0-40 17.9-40 40V96zm48 0V48H288V96H160z"/></svg>