<svg xmlns="http://www.w3.org/2000/svg" viewBox="0 0 512 512"><!--! Font Awesome Pro 6.4.2 by @fontawesome - https://fontawesome.com License - https://fontawesome.com/license (Commercial License) Copyright 2023 Fonticons, Inc. --><path class="fa-primary" style="fill:var(--fa-primary-color,inherit);opacity:var(--fa-primary-opacity,1);" d="M32 64C14.3 64 0 78.3 0 96s14.3 32 32 32H64V64H32zM384 480c0 17.7 14.3 32 32 32s32-14.3 32-32l0-352c0-35.3-28.7-64-64-64H128v64l256 0 0 352z"/><path class="fa-secondary" style="fill:var(--fa-secondary-color,inherit);opacity:var(--fa-secondary-opacity,.4);" d="M128 32c0-17.7-14.3-32-32-32S64 14.3 64 32V384c0 35.3 28.7 64 64 64H384V384H128V32zM480 384H448v64h32c17.7 0 32-14.3 32-32s-14.3-32-32-32z"/></svg>