<svg xmlns="http://www.w3.org/2000/svg" viewBox="0 0 384 512"><!--! Font Awesome Pro 6.4.2 by @fontawesome - https://fontawesome.com License - https://fontawesome.com/license (Commercial License) Copyright 2023 Fonticons, Inc. --><path class="fa-primary" style="fill:var(--fa-primary-color,inherit);opacity:var(--fa-primary-opacity,1);" d="M128 256H256v32H128V256z"/><path class="fa-secondary" style="fill:var(--fa-secondary-color,inherit);opacity:var(--fa-secondary-opacity,.4);" d="M176 0c-26.5 0-48 21.5-48 48v80H48c-26.5 0-48 21.5-48 48v32c0 26.5 21.5 48 48 48h80V464c0 26.5 21.5 48 48 48h32c26.5 0 48-21.5 48-48V256h80c26.5 0 48-21.5 48-48V176c0-26.5-21.5-48-48-48H256V48c0-26.5-21.5-48-48-48H176z"/></svg>