<svg xmlns="http://www.w3.org/2000/svg" viewBox="0 0 512 512"><!--! Font Awesome Pro 6.4.2 by @fontawesome - https://fontawesome.com License - https://fontawesome.com/license (Commercial License) Copyright 2023 Fonticons, Inc. --><path class="fa-primary" style="fill:var(--fa-primary-color,inherit);opacity:var(--fa-primary-opacity,1);" d="M448 224c35.3 0 64-28.7 64-64V96c0-35.3-28.7-64-64-64L64 32C28.7 32 0 60.7 0 96l0 64c0 35.3 28.7 64 64 64l384 0z"/><path class="fa-secondary" style="fill:var(--fa-secondary-color,inherit);opacity:var(--fa-secondary-opacity,.4);" d="M448 480c35.3 0 64-28.7 64-64V352c0-35.3-28.7-64-64-64L64 288c-35.3 0-64 28.7-64 64l0 64c0 35.3 28.7 64 64 64l384 0z"/></svg>