<svg xmlns="http://www.w3.org/2000/svg" viewBox="0 0 512 512"><!--! Font Awesome Pro 6.4.2 by @fontawesome - https://fontawesome.com License - https://fontawesome.com/license (Commercial License) Copyright 2023 Fonticons, Inc. --><path class="fa-primary" style="fill:var(--fa-primary-color,inherit);opacity:var(--fa-primary-opacity,1);" d="M24 32C10.7 32 0 42.7 0 56S10.7 80 24 80H488c13.3 0 24-10.7 24-24s-10.7-24-24-24H24zm0 400c-13.3 0-24 10.7-24 24s10.7 24 24 24H488c13.3 0 24-10.7 24-24s-10.7-24-24-24H24z"/><path class="fa-secondary" style="fill:var(--fa-secondary-color,inherit);opacity:var(--fa-secondary-opacity,.4);" d="M96 208c0-26.5 21.5-48 48-48H368c26.5 0 48 21.5 48 48v96c0 26.5-21.5 48-48 48H144c-26.5 0-48-21.5-48-48V208z"/></svg>