<svg xmlns="http://www.w3.org/2000/svg" viewBox="0 0 192 512"><!--! Font Awesome Pro 6.4.2 by @fontawesome - https://fontawesome.com License - https://fontawesome.com/license (Commercial License) Copyright 2023 Fonticons, Inc. --><path class="fa-primary" style="fill:var(--fa-primary-color,inherit);opacity:var(--fa-primary-opacity,1);" d="M96 72a24 24 0 1 0 0 48 24 24 0 1 0 0-48zm0 96A72 72 0 1 1 96 24a72 72 0 1 1 0 144zm0 224a24 24 0 1 0 0 48 24 24 0 1 0 0-48zm0 96a72 72 0 1 1 0-144 72 72 0 1 1 0 144z"/><path class="fa-secondary" style="fill:var(--fa-secondary-color,inherit);opacity:var(--fa-secondary-opacity,.4);" d="M96 232a24 24 0 1 1 0 48 24 24 0 1 1 0-48zm0 96a72 72 0 1 0 0-144 72 72 0 1 0 0 144z"/></svg>