<svg xmlns="http://www.w3.org/2000/svg" viewBox="0 0 512 512"><!--! Font Awesome Pro 6.4.2 by @fontawesome - https://fontawesome.com License - https://fontawesome.com/license (Commercial License) Copyright 2023 Fonticons, Inc. --><path class="fa-primary" style="fill:var(--fa-primary-color,inherit);opacity:var(--fa-primary-opacity,1);" d="M392 256a24 24 0 1 0 48 0 24 24 0 1 0 -48 0zm96 0a72 72 0 1 1 -144 0 72 72 0 1 1 144 0zM72 256a24 24 0 1 0 48 0 24 24 0 1 0 -48 0zm96 0A72 72 0 1 1 24 256a72 72 0 1 1 144 0z"/><path class="fa-secondary" style="fill:var(--fa-secondary-color,inherit);opacity:var(--fa-secondary-opacity,.4);" d="M256 280a24 24 0 1 1 0-48 24 24 0 1 1 0 48zm0-96a72 72 0 1 0 0 144 72 72 0 1 0 0-144z"/></svg>