<svg xmlns="http://www.w3.org/2000/svg" viewBox="0 0 384 512"><!--! Font Awesome Pro 6.4.2 by @fontawesome - https://fontawesome.com License - https://fontawesome.com/license (Commercial License) Copyright 2023 Fonticons, Inc. --><path class="fa-primary" style="fill:var(--fa-primary-color,inherit);opacity:var(--fa-primary-opacity,1);" d="M384 160H256c-17.7 0-32-14.3-32-32V0L384 160zM160 240c0-8.8 7.2-16 16-16h32c8.8 0 16 7.2 16 16v48h48c8.8 0 16 7.2 16 16v32c0 8.8-7.2 16-16 16H224v48c0 8.8-7.2 16-16 16H176c-8.8 0-16-7.2-16-16V352H112c-8.8 0-16-7.2-16-16V304c0-8.8 7.2-16 16-16h48V240z"/><path class="fa-secondary" style="fill:var(--fa-secondary-color,inherit);opacity:var(--fa-secondary-opacity,.4);" d="M0 64C0 28.7 28.7 0 64 0H224V128c0 17.7 14.3 32 32 32H384V448c0 35.3-28.7 64-64 64H64c-35.3 0-64-28.7-64-64V64zM160 240v48H112c-8.8 0-16 7.2-16 16v32c0 8.8 7.2 16 16 16h48v48c0 8.8 7.2 16 16 16h32c8.8 0 16-7.2 16-16V352h48c8.8 0 16-7.2 16-16V304c0-8.8-7.2-16-16-16H224V240c0-8.8-7.2-16-16-16H176c-8.8 0-16 7.2-16 16z"/></svg>