<svg xmlns="http://www.w3.org/2000/svg" viewBox="0 0 512 512"><!--! Font Awesome Pro 6.4.2 by @fontawesome - https://fontawesome.com License - https://fontawesome.com/license (Commercial License) Copyright 2023 Fonticons, Inc. --><path class="fa-primary" style="fill:var(--fa-primary-color,inherit);opacity:var(--fa-primary-opacity,1);" d="M308.5 440.6c-9.5 7.9-22.8 9.7-34.1 4.4s-18.4-16.6-18.4-29V96c0-12.4 7.2-23.7 18.4-29s24.5-3.6 34.1 4.4l192 160c7.3 6.1 11.5 15.1 11.5 24.6s-4.2 18.5-11.5 24.6l-192 160z"/><path class="fa-secondary" style="fill:var(--fa-secondary-color,inherit);opacity:var(--fa-secondary-opacity,.4);" d="M18.4 445c11.2 5.3 24.5 3.6 34.1-4.4L256 271V241L52.5 71.4c-9.5-7.9-22.8-9.7-34.1-4.4S0 83.6 0 96V416c0 12.4 7.2 23.7 18.4 29z"/></svg>