<svg xmlns="http://www.w3.org/2000/svg" viewBox="0 0 448 512"><!--! Font Awesome Pro 6.4.2 by @fontawesome - https://fontawesome.com License - https://fontawesome.com/license (Commercial License) Copyright 2023 Fonticons, Inc. --><path class="fa-primary" style="fill:var(--fa-primary-color,inherit);opacity:var(--fa-primary-opacity,1);" d="M64 64A32 32 0 1 1 0 64a32 32 0 1 1 64 0zm0 192A32 32 0 1 1 0 256a32 32 0 1 1 64 0zM32 480a32 32 0 1 1 0-64 32 32 0 1 1 0 64zM160 160a32 32 0 1 1 -64 0 32 32 0 1 1 64 0zM128 384a32 32 0 1 1 0-64 32 32 0 1 1 0 64zM256 64a32 32 0 1 1 -64 0 32 32 0 1 1 64 0zM224 288a32 32 0 1 1 0-64 32 32 0 1 1 0 64zm32 160a32 32 0 1 1 -64 0 32 32 0 1 1 64 0zm64-256a32 32 0 1 1 0-64 32 32 0 1 1 0 64zm32 160a32 32 0 1 1 -64 0 32 32 0 1 1 64 0zM416 96a32 32 0 1 1 0-64 32 32 0 1 1 0 64zm32 160a32 32 0 1 1 -64 0 32 32 0 1 1 64 0zM416 480a32 32 0 1 1 0-64 32 32 0 1 1 0 64z"/><path class="fa-secondary" style="fill:var(--fa-secondary-color,inherit);opacity:var(--fa-secondary-opacity,.4);" d="M160 64A32 32 0 1 1 96 64a32 32 0 1 1 64 0zM32 192a32 32 0 1 1 0-64 32 32 0 1 1 0 64zm0 192a32 32 0 1 1 0-64 32 32 0 1 1 0 64zm96-96a32 32 0 1 1 0-64 32 32 0 1 1 0 64zm32 160a32 32 0 1 1 -64 0 32 32 0 1 1 64 0zm64-256a32 32 0 1 1 0-64 32 32 0 1 1 0 64zm32 160a32 32 0 1 1 -64 0 32 32 0 1 1 64 0zM320 96a32 32 0 1 1 0-64 32 32 0 1 1 0 64zm32 160a32 32 0 1 1 -64 0 32 32 0 1 1 64 0zM320 480a32 32 0 1 1 0-64 32 32 0 1 1 0 64zM448 160a32 32 0 1 1 -64 0 32 32 0 1 1 64 0zM416 384a32 32 0 1 1 0-64 32 32 0 1 1 0 64z"/></svg>