<svg xmlns="http://www.w3.org/2000/svg" viewBox="0 0 448 512"><!--! Font Awesome Pro 6.4.2 by @fontawesome - https://fontawesome.com License - https://fontawesome.com/license (Commercial License) Copyright 2023 Fonticons, Inc. --><path class="fa-primary" style="fill:var(--fa-primary-color,inherit);opacity:var(--fa-primary-opacity,1);" d="M44.8 32a44.8 44.8 0 1 0 0 89.6 44.8 44.8 0 1 0 0-89.6zm0 238.9a44.8 44.8 0 1 0 0 89.6 44.8 44.8 0 1 0 0-89.6zm74.7-74.7a44.8 44.8 0 1 0 89.6 0 44.8 44.8 0 1 0 -89.6 0zm44.8 194.1a44.8 44.8 0 1 0 0 89.6 44.8 44.8 0 1 0 0-89.6zM238.9 76.8a44.8 44.8 0 1 0 89.6 0 44.8 44.8 0 1 0 -89.6 0zm44.8 194.1a44.8 44.8 0 1 0 0 89.6 44.8 44.8 0 1 0 0-89.6zm74.7-74.7a44.8 44.8 0 1 0 89.6 0 44.8 44.8 0 1 0 -89.6 0zm44.8 194.1a44.8 44.8 0 1 0 0 89.6 44.8 44.8 0 1 0 0-89.6z"/><path class="fa-secondary" style="fill:var(--fa-secondary-color,inherit);opacity:var(--fa-secondary-opacity,.4);" d="M119.5 76.8a44.8 44.8 0 1 0 89.6 0 44.8 44.8 0 1 0 -89.6 0zM44.8 151.5a44.8 44.8 0 1 0 0 89.6 44.8 44.8 0 1 0 0-89.6zm0 238.9a44.8 44.8 0 1 0 0 89.6 44.8 44.8 0 1 0 0-89.6zM164.3 270.9a44.8 44.8 0 1 0 0 89.6 44.8 44.8 0 1 0 0-89.6zm74.7-74.7a44.8 44.8 0 1 0 89.6 0 44.8 44.8 0 1 0 -89.6 0zm44.8 194.1a44.8 44.8 0 1 0 0 89.6 44.8 44.8 0 1 0 0-89.6zM358.4 76.8a44.8 44.8 0 1 0 89.6 0 44.8 44.8 0 1 0 -89.6 0zm44.8 194.1a44.8 44.8 0 1 0 0 89.6 44.8 44.8 0 1 0 0-89.6z"/></svg>