<svg xmlns="http://www.w3.org/2000/svg" viewBox="0 0 256 512"><!--! Font Awesome Pro 6.4.2 by @fontawesome - https://fontawesome.com License - https://fontawesome.com/license (Commercial License) Copyright 2023 Fonticons, Inc. --><path class="fa-primary" style="fill:var(--fa-primary-color,inherit);opacity:var(--fa-primary-opacity,1);" d="M0 96a48 48 0 1 1 96 0A48 48 0 1 1 0 96zM0 256a48 48 0 1 1 96 0A48 48 0 1 1 0 256zM48 368a48 48 0 1 1 0 96 48 48 0 1 1 0-96z"/><path class="fa-secondary" style="fill:var(--fa-secondary-color,inherit);opacity:var(--fa-secondary-opacity,.4);" d="M160 96a48 48 0 1 1 96 0 48 48 0 1 1 -96 0zm0 160a48 48 0 1 1 96 0 48 48 0 1 1 -96 0zm48 112a48 48 0 1 1 0 96 48 48 0 1 1 0-96z"/></svg>