<svg xmlns="http://www.w3.org/2000/svg" viewBox="0 0 192 512"><!--! Font Awesome Pro 6.4.2 by @fontawesome - https://fontawesome.com License - https://fontawesome.com/license (Commercial License) Copyright 2023 Fonticons, Inc. --><path class="fa-primary" style="fill:var(--fa-primary-color,inherit);opacity:var(--fa-primary-opacity,1);" d="M32 192c-17.7 0-32 14.3-32 32s14.3 32 32 32H64V448H32c-17.7 0-32 14.3-32 32s14.3 32 32 32H160c17.7 0 32-14.3 32-32s-14.3-32-32-32H128V224c0-17.7-14.3-32-32-32H32z"/><path class="fa-secondary" style="fill:var(--fa-secondary-color,inherit);opacity:var(--fa-secondary-opacity,.4);" d="M48 80a48 48 0 1 1 96 0A48 48 0 1 1 48 80z"/></svg>