<svg xmlns="http://www.w3.org/2000/svg" viewBox="0 0 320 512"><!--! Font Awesome Pro 6.4.2 by @fontawesome - https://fontawesome.com License - https://fontawesome.com/license (Commercial License) Copyright 2023 Fonticons, Inc. --><path class="fa-primary" style="fill:var(--fa-primary-color,inherit);opacity:var(--fa-primary-opacity,1);" d="M64 0C46.3 0 32 14.3 32 32s14.3 32 32 32H256c17.7 0 32-14.3 32-32s-14.3-32-32-32H64zM96 192c-17.7 0-32 14.3-32 32V352c0 17.7 14.3 32 32 32H224c17.7 0 32-14.3 32-32V224c0-17.7-14.3-32-32-32H96z"/><path class="fa-secondary" style="fill:var(--fa-secondary-color,inherit);opacity:var(--fa-secondary-opacity,.4);" d="M64 64C28.7 64 0 92.7 0 128V448c0 35.3 28.7 64 64 64H256c35.3 0 64-28.7 64-64V128c0-35.3-28.7-64-64-64H64zM96 192H224c17.7 0 32 14.3 32 32V352c0 17.7-14.3 32-32 32H96c-17.7 0-32-14.3-32-32V224c0-17.7 14.3-32 32-32z"/></svg>