<svg xmlns="http://www.w3.org/2000/svg" viewBox="0 0 384 512"><!--! Font Awesome Pro 6.4.2 by @fontawesome - https://fontawesome.com License - https://fontawesome.com/license (Commercial License) Copyright 2023 Fonticons, Inc. --><path class="fa-primary" style="fill:var(--fa-primary-color,inherit);opacity:var(--fa-primary-opacity,1);" d="M0 64C0 28.7 28.7 0 64 0H320c35.3 0 64 28.7 64 64V448c0 35.3-28.7 64-64 64H64c-35.3 0-64-28.7-64-64V64zm96 96V352c0 35.3 28.7 64 64 64h64c35.3 0 64-28.7 64-64V160c0-35.3-28.7-64-64-64H160c-35.3 0-64 28.7-64 64zM208 48a16 16 0 1 0 -32 0 16 16 0 1 0 32 0zm0 416a16 16 0 1 0 -32 0 16 16 0 1 0 32 0z"/><path class="fa-secondary" style="fill:var(--fa-secondary-color,inherit);opacity:var(--fa-secondary-opacity,.4);" d="M160 96c-35.3 0-64 28.7-64 64v96H288V160c0-35.3-28.7-64-64-64H160z"/></svg>