<svg xmlns="http://www.w3.org/2000/svg" viewBox="0 0 384 512"><!--! Font Awesome Pro 6.4.2 by @fontawesome - https://fontawesome.com License - https://fontawesome.com/license (Commercial License) Copyright 2023 Fonticons, Inc. --><path class="fa-primary" style="fill:var(--fa-primary-color,inherit);opacity:var(--fa-primary-opacity,1);" d="M128 64H96c-8.8 0-16 7.2-16 16V432c0 8.8 7.2 16 16 16H288c8.8 0 16-7.2 16-16V80c0-8.8-7.2-16-16-16H256V80c0 8.8-7.2 16-16 16H144c-8.8 0-16-7.2-16-16V64z"/><path class="fa-secondary" style="fill:var(--fa-secondary-color,inherit);opacity:var(--fa-secondary-opacity,.4);" d="M256 64V80c0 8.8-7.2 16-16 16H144c-8.8 0-16-7.2-16-16V64H96c-8.8 0-16 7.2-16 16V432c0 8.8 7.2 16 16 16H288c8.8 0 16-7.2 16-16V80c0-8.8-7.2-16-16-16H256zM16 80C16 35.8 51.8 0 96 0H288c44.2 0 80 35.8 80 80V432c0 44.2-35.8 80-80 80H96c-44.2 0-80-35.8-80-80V80z"/></svg>