<svg xmlns="http://www.w3.org/2000/svg" viewBox="0 0 576 512"><!--! Font Awesome Pro 6.4.2 by @fontawesome - https://fontawesome.com License - https://fontawesome.com/license (Commercial License) Copyright 2023 Fonticons, Inc. --><path class="fa-primary" style="fill:var(--fa-primary-color,inherit);opacity:var(--fa-primary-opacity,1);" d="M64 64C28.7 64 0 92.7 0 128V384c0 35.3 28.7 64 64 64H512c35.3 0 64-28.7 64-64V128c0-35.3-28.7-64-64-64H64zm384 64c0 35.3 28.7 64 64 64V320c-35.3 0-64 28.7-64 64H128c0-35.3-28.7-64-64-64V192c35.3 0 64-28.7 64-64H448z"/><path class="fa-secondary" style="fill:var(--fa-secondary-color,inherit);opacity:var(--fa-secondary-opacity,.4);" d="M448 128H128c0 35.3-28.7 64-64 64V320c35.3 0 64 28.7 64 64H448c0-35.3 28.7-64 64-64V192c-35.3 0-64-28.7-64-64zM288 160a96 96 0 1 1 0 192 96 96 0 1 1 0-192z"/></svg>