<svg xmlns="http://www.w3.org/2000/svg" viewBox="0 0 512 512"><!--! Font Awesome Pro 6.4.2 by @fontawesome - https://fontawesome.com License - https://fontawesome.com/license (Commercial License) Copyright 2023 Fonticons, Inc. --><path class="fa-primary" style="fill:var(--fa-primary-color,inherit);opacity:var(--fa-primary-opacity,1);" d="M448 512c35.3 0 64-28.7 64-64l0-224c0-35.3-28.7-64-64-64l-96 0 0 128c0 35.3-28.7 64-64 64l-128 0 0 96c0 35.3 28.7 64 64 64l224 0z"/><path class="fa-secondary" style="fill:var(--fa-secondary-color,inherit);opacity:var(--fa-secondary-opacity,.4);" d="M64 288L64 64l224 0 0 224L64 288zm224 64c35.3 0 64-28.7 64-64l0-224c0-35.3-28.7-64-64-64L64 0C28.7 0 0 28.7 0 64L0 288c0 35.3 28.7 64 64 64l224 0z"/></svg>