<svg xmlns="http://www.w3.org/2000/svg" viewBox="0 0 448 512"><!--! Font Awesome Pro 6.4.2 by @fontawesome - https://fontawesome.com License - https://fontawesome.com/license (Commercial License) Copyright 2023 Fonticons, Inc. --><path class="fa-primary" style="fill:var(--fa-primary-color,inherit);opacity:var(--fa-primary-opacity,1);" d="M48 32C21.5 32 0 53.5 0 80V240c0 26.5 21.5 48 48 48h96c26.5 0 48-21.5 48-48V80c0-26.5-21.5-48-48-48H48zm0 320c-26.5 0-48 21.5-48 48v32c0 26.5 21.5 48 48 48h96c26.5 0 48-21.5 48-48V400c0-26.5-21.5-48-48-48H48z"/><path class="fa-secondary" style="fill:var(--fa-secondary-color,inherit);opacity:var(--fa-secondary-opacity,.4);" d="M304 32c-26.5 0-48 21.5-48 48v32c0 26.5 21.5 48 48 48h96c26.5 0 48-21.5 48-48V80c0-26.5-21.5-48-48-48H304zm0 192c-26.5 0-48 21.5-48 48V432c0 26.5 21.5 48 48 48h96c26.5 0 48-21.5 48-48V272c0-26.5-21.5-48-48-48H304z"/></svg>