<svg xmlns="http://www.w3.org/2000/svg" viewBox="0 0 512 512"><!--! Font Awesome Pro 6.4.2 by @fontawesome - https://fontawesome.com License - https://fontawesome.com/license (Commercial License) Copyright 2023 Fonticons, Inc. --><path class="fa-primary" style="fill:var(--fa-primary-color,inherit);opacity:var(--fa-primary-opacity,1);" d="M160 224c0-35.3 28.7-64 64-64H352V288c0 35.3-28.7 64-64 64H160V224z"/><path class="fa-secondary" style="fill:var(--fa-secondary-color,inherit);opacity:var(--fa-secondary-opacity,.4);" d="M64 64H288v96h64v64h96V448H224V352H160V288H64V64zm96 288v96c0 35.3 28.7 64 64 64H448c35.3 0 64-28.7 64-64V224c0-35.3-28.7-64-64-64H352V64c0-35.3-28.7-64-64-64H64C28.7 0 0 28.7 0 64V288c0 35.3 28.7 64 64 64h96z"/></svg>