<svg xmlns="http://www.w3.org/2000/svg" viewBox="0 0 512 512"><!--! Font Awesome Pro 6.4.2 by @fontawesome - https://fontawesome.com License - https://fontawesome.com/license (Commercial License) Copyright 2023 Fonticons, Inc. --><path class="fa-primary" style="fill:var(--fa-primary-color,inherit);opacity:var(--fa-primary-opacity,1);" d="M256 64a192 192 0 1 1 0 384 192 192 0 1 1 0-384zm0 448A256 256 0 1 0 256 0a256 256 0 1 0 0 512z"/><path class="fa-secondary" style="fill:var(--fa-secondary-color,inherit);opacity:var(--fa-secondary-opacity,.4);" d="M288 445.3c-10.4 1.7-21.1 2.7-32 2.7s-21.6-.9-32-2.7V323.5l-94.3 77.1c-16.1-14.1-29.9-30.8-40.6-49.5L224 240.8V66.7c10.4-1.7 21.1-2.7 32-2.7s21.6 .9 32 2.7V240.8L422.8 351.1c-10.7 18.7-24.4 35.4-40.6 49.5L288 323.5V445.3z"/></svg>