<svg xmlns="http://www.w3.org/2000/svg" viewBox="0 0 448 512"><!--! Font Awesome Pro 6.4.2 by @fontawesome - https://fontawesome.com License - https://fontawesome.com/license (Commercial License) Copyright 2023 Fonticons, Inc. --><path class="fa-primary" style="fill:var(--fa-primary-color,inherit);opacity:var(--fa-primary-opacity,1);" d="M412.1 463.4c-7.2 13.2-23.1 19.9-37.9 15L66.3 379.3c-12.1-3.9-22.8-10-32-17.7c-40.6-34.1-46-94.7-11.9-135.3s94.6-45.9 135.2-11.8l246 208.3c12.6 9.8 15.8 27.1 8.4 40.6zM96 320a32 32 0 1 0 0-64 32 32 0 1 0 0 64zM352 32a96 96 0 1 0 0 192 96 96 0 1 0 0-192z"/><path class="fa-secondary" style="fill:var(--fa-secondary-color,inherit);opacity:var(--fa-secondary-opacity,.4);" d=""/></svg>