<svg xmlns="http://www.w3.org/2000/svg" viewBox="0 0 320 512"><!--! Font Awesome Pro 6.4.2 by @fontawesome - https://fontawesome.com License - https://fontawesome.com/license (Commercial License) Copyright 2023 Fonticons, Inc. --><path class="fa-primary" style="fill:var(--fa-primary-color,inherit);opacity:var(--fa-primary-opacity,1);" d="M128 192c0-17.7 14.3-32 32-32s32 14.3 32 32V480c0 17.7-14.3 32-32 32s-32-14.3-32-32V192z"/><path class="fa-secondary" style="fill:var(--fa-secondary-color,inherit);opacity:var(--fa-secondary-opacity,.4);" d="M160 0C71.6 0 0 71.6 0 160V336c0 26.5 21.5 48 48 48h80V192c0-17.7 14.3-32 32-32s32 14.3 32 32V384h80c26.5 0 48-21.5 48-48V160C320 71.6 248.4 0 160 0z"/></svg>