<svg xmlns="http://www.w3.org/2000/svg" viewBox="0 0 256 512"><!--! Font Awesome Pro 6.4.2 by @fontawesome - https://fontawesome.com License - https://fontawesome.com/license (Commercial License) Copyright 2023 Fonticons, Inc. --><path class="fa-primary" style="fill:var(--fa-primary-color,inherit);opacity:var(--fa-primary-opacity,1);" d="M176 96c-8.8 0-16 7.2-16 16s7.2 16 16 16h80V96H176zM160 208c0 8.8 7.2 16 16 16h80V192H176c-8.8 0-16 7.2-16 16zm16 80c-8.8 0-16 7.2-16 16s7.2 16 16 16h80V288H176zm0 96c-8.8 0-16 7.2-16 16s7.2 16 16 16h80V384H176z"/><path class="fa-secondary" style="fill:var(--fa-secondary-color,inherit);opacity:var(--fa-secondary-opacity,.4);" d="M0 48C0 21.5 21.5 0 48 0H208c26.5 0 48 21.5 48 48V96H176c-8.8 0-16 7.2-16 16s7.2 16 16 16h80v64H176c-8.8 0-16 7.2-16 16s7.2 16 16 16h80v64H176c-8.8 0-16 7.2-16 16s7.2 16 16 16h80v64H176c-8.8 0-16 7.2-16 16s7.2 16 16 16h80v48c0 26.5-21.5 48-48 48H48c-26.5 0-48-21.5-48-48V48z"/></svg>