<svg xmlns="http://www.w3.org/2000/svg" viewBox="0 0 384 512"><!--! Font Awesome Pro 6.4.2 by @fontawesome - https://fontawesome.com License - https://fontawesome.com/license (Commercial License) Copyright 2023 Fonticons, Inc. --><path class="fa-primary" style="fill:var(--fa-primary-color,inherit);opacity:var(--fa-primary-opacity,1);" d="M101.2 192H282.8h64.7l-9.3-65.3C327.7 54 265.4 0 192 0S56.3 54 45.9 126.7L36.6 192h64.6zM176 64a16 16 0 1 1 32 0 16 16 0 1 1 -32 0zM144 80a16 16 0 1 1 0 32 16 16 0 1 1 0-32zm80 16a16 16 0 1 1 32 0 16 16 0 1 1 -32 0z"/><path class="fa-secondary" style="fill:var(--fa-secondary-color,inherit);opacity:var(--fa-secondary-opacity,.4);" d="M36.6 192L.6 443.8c-.4 2.8-.6 5.6-.6 8.5c0 33 26.8 59.8 59.8 59.8H324.2c33 0 59.8-26.8 59.8-59.8c0-2.8-.2-5.7-.6-8.5L347.4 192H282.8l36.6 256H64.6l36.6-256H36.6z"/></svg>