<svg xmlns="http://www.w3.org/2000/svg" viewBox="0 0 576 512"><!--! Font Awesome Pro 6.4.2 by @fontawesome - https://fontawesome.com License - https://fontawesome.com/license (Commercial License) Copyright 2023 Fonticons, Inc. --><path class="fa-primary" style="fill:var(--fa-primary-color,inherit);opacity:var(--fa-primary-opacity,1);" d="M128 160H32c-17.7 0-32-14.3-32-32V96C0 60.7 28.7 32 64 32s64 28.7 64 64v64zM288 400V384c0-17.7 14.3-32 32-32H544c17.7 0 32 14.3 32 32c0 53-43 96-96 96H208c44.2 0 80-35.8 80-80z"/><path class="fa-secondary" style="fill:var(--fa-secondary-color,inherit);opacity:var(--fa-secondary-opacity,.4);" d="M128 96V400c0 44.2 35.8 80 80 80s80-35.8 80-80V384c0-17.7 14.3-32 32-32H480V96c0-35.3-28.7-64-64-64H64c35.3 0 64 28.7 64 64z"/></svg>