<svg xmlns="http://www.w3.org/2000/svg" viewBox="0 0 640 512"><!--! Font Awesome Pro 6.4.2 by @fontawesome - https://fontawesome.com License - https://fontawesome.com/license (Commercial License) Copyright 2023 Fonticons, Inc. --><path class="fa-primary" style="fill:var(--fa-primary-color,inherit);opacity:var(--fa-primary-opacity,1);" d="M639 24.1C636.1 12.7 627 3.3 614.7 .7c-2.2-.5-4.5-.7-6.7-.7H582.1l-5.4 25.3s0 0 0 0l-7.7 36L520.4 288H416c-17.7 0-32 14.3-32 32s14.3 32 32 32h90.7l-26 121.3c-3.7 17.3 7.3 34.3 24.6 38s34.3-7.3 38-24.6l34.3-160L634.4 61.3l4.8-22.6s0 0 0 0c1.1-5 .9-10-.3-14.6z"/><path class="fa-secondary" style="fill:var(--fa-secondary-color,inherit);opacity:var(--fa-secondary-opacity,.4);" d="M582.1 0H352C114.8 0 15 151.1 1.6 173.3c-1.1 1.8-1.6 3.8-1.6 6c0 7 5.7 12.7 12.7 12.7H541L576.7 25.3 582.1 0z"/></svg>