<svg xmlns="http://www.w3.org/2000/svg" viewBox="0 0 448 512"><!--! Font Awesome Pro 6.4.2 by @fontawesome - https://fontawesome.com License - https://fontawesome.com/license (Commercial License) Copyright 2023 Fonticons, Inc. --><path class="fa-primary" style="fill:var(--fa-primary-color,inherit);opacity:var(--fa-primary-opacity,1);" d="M0 64C0 46.3 14.3 32 32 32H192c70.7 0 128 57.3 128 128V320c0 17.7-14.3 32-32 32s-32-14.3-32-32V160c0-35.3-28.7-64-64-64H64V448c0 17.7-14.3 32-32 32s-32-14.3-32-32V64z"/><path class="fa-secondary" style="fill:var(--fa-secondary-color,inherit);opacity:var(--fa-secondary-opacity,.4);" d="M448 352c0 70.7-57.3 128-128 128H160c-17.7 0-32-14.3-32-32V192c0-17.7 14.3-32 32-32s32 14.3 32 32V416H320c35.3 0 64-28.7 64-64V64c0-17.7 14.3-32 32-32s32 14.3 32 32V352z"/></svg>