<svg xmlns="http://www.w3.org/2000/svg" viewBox="0 0 512 512"><!--! Font Awesome Pro 6.4.2 by @fontawesome - https://fontawesome.com License - https://fontawesome.com/license (Commercial License) Copyright 2023 Fonticons, Inc. --><path class="fa-primary" style="fill:var(--fa-primary-color,inherit);opacity:var(--fa-primary-opacity,1);" d="M128 0h64c17.7 0 32 14.3 32 32v96H96V32c0-17.7 14.3-32 32-32zM0 256c0-53 43-96 96-96H224c53 0 96 43 96 96V464c0 26.5-21.5 48-48 48H48c-26.5 0-48-21.5-48-48V256zm240 80A80 80 0 1 0 80 336a80 80 0 1 0 160 0z"/><path class="fa-secondary" style="fill:var(--fa-secondary-color,inherit);opacity:var(--fa-secondary-opacity,.4);" d="M256 64a32 32 0 1 1 64 0 32 32 0 1 1 -64 0zM80 336a80 80 0 1 1 160 0A80 80 0 1 1 80 336zM384 32a32 32 0 1 1 0 64 32 32 0 1 1 0-64zm64 32a32 32 0 1 1 64 0 32 32 0 1 1 -64 0zm32 64a32 32 0 1 1 0 64 32 32 0 1 1 0-64zM448 256a32 32 0 1 1 64 0 32 32 0 1 1 -64 0zM384 128a32 32 0 1 1 0 64 32 32 0 1 1 0-64z"/></svg>