<svg xmlns="http://www.w3.org/2000/svg" viewBox="0 0 448 512"><!--! Font Awesome Pro 6.4.2 by @fontawesome - https://fontawesome.com License - https://fontawesome.com/license (Commercial License) Copyright 2023 Fonticons, Inc. --><path class="fa-primary" style="fill:var(--fa-primary-color,inherit);opacity:var(--fa-primary-opacity,1);" d="M0 192V320H64V192H0zm384 0V320h64V192H384zM160 480H288V416H160v64zm0-384H288V32H160V96z"/><path class="fa-secondary" style="fill:var(--fa-secondary-color,inherit);opacity:var(--fa-secondary-opacity,.4);" d="M96 32h32V96H96c-17.7 0-32 14.3-32 32v32H0V128C0 75 43 32 96 32zm0 384h32v64H96c-53 0-96-43-96-96V352H64v32c0 17.7 14.3 32 32 32zm256 64H320V416h32c17.7 0 32-14.3 32-32V352h64v32c0 53-43 96-96 96zm96-320H384V128c0-17.7-14.3-32-32-32H320V32h32c53 0 96 43 96 96v32z"/></svg>