<svg xmlns="http://www.w3.org/2000/svg" viewBox="0 0 448 512"><!--! Font Awesome Pro 6.4.2 by @fontawesome - https://fontawesome.com License - https://fontawesome.com/license (Commercial License) Copyright 2023 Fonticons, Inc. --><path class="fa-primary" style="fill:var(--fa-primary-color,inherit);opacity:var(--fa-primary-opacity,1);" d="M224 176a80 80 0 1 0 0 160 80 80 0 1 0 0-160zm128 80A128 128 0 1 1 96 256a128 128 0 1 1 256 0z"/><path class="fa-secondary" style="fill:var(--fa-secondary-color,inherit);opacity:var(--fa-secondary-opacity,.4);" d="M64 32C28.7 32 0 60.7 0 96V416c0 35.3 28.7 64 64 64H384c35.3 0 64-28.7 64-64V96c0-35.3-28.7-64-64-64H64zm80 224a80 80 0 1 0 160 0 80 80 0 1 0 -160 0zm80 128a128 128 0 1 1 0-256 128 128 0 1 1 0 256z"/></svg>