<svg xmlns="http://www.w3.org/2000/svg" viewBox="0 0 448 512"><!--! Font Awesome Pro 6.4.2 by @fontawesome - https://fontawesome.com License - https://fontawesome.com/license (Commercial License) Copyright 2023 Fonticons, Inc. --><path class="fa-primary" style="fill:var(--fa-primary-color,inherit);opacity:var(--fa-primary-opacity,1);" d=""/><path class="fa-secondary" style="fill:var(--fa-secondary-color,inherit);opacity:var(--fa-secondary-opacity,.4);" d="M64 96v32c0 17.7-14.3 32-32 32s-32-14.3-32-32V80C0 53.5 21.5 32 48 32H224 400c26.5 0 48 21.5 48 48v48c0 17.7-14.3 32-32 32s-32-14.3-32-32V96H256l0 320h48c17.7 0 32 14.3 32 32s-14.3 32-32 32H144c-17.7 0-32-14.3-32-32s14.3-32 32-32h48l0-320H64z"/></svg>