<svg xmlns="http://www.w3.org/2000/svg" viewBox="0 0 512 512"><!--! Font Awesome Pro 6.4.2 by @fontawesome - https://fontawesome.com License - https://fontawesome.com/license (Commercial License) Copyright 2023 Fonticons, Inc. --><path class="fa-primary" style="fill:var(--fa-primary-color,inherit);opacity:var(--fa-primary-opacity,1);" d="M448 32c35.3 0 64 28.7 64 64V224H0V96C0 60.7 28.7 32 64 32H448zM416 160a32 32 0 1 0 0-64 32 32 0 1 0 0 64zM288 128a32 32 0 1 0 64 0 32 32 0 1 0 -64 0zm-64 32a32 32 0 1 0 0-64 32 32 0 1 0 0 64z"/><path class="fa-secondary" style="fill:var(--fa-secondary-color,inherit);opacity:var(--fa-secondary-opacity,.4);" d="M384 128a32 32 0 1 0 64 0 32 32 0 1 0 -64 0zM0 416c0 35.3 28.7 64 64 64l384 0c35.3 0 64-28.7 64-64V224L0 224V416zM320 160a32 32 0 1 0 0-64 32 32 0 1 0 0 64z"/></svg>