<svg width="150" height="45" viewBox="0 0 150 45" fill="none" xmlns="http://www.w3.org/2000/svg">
<rect x="0.5" y="0.5" width="149" height="44" rx="7.5" fill="white"/>
<path d="M79.2409 16.1101L79 15.4788C79.5592 15.3016 79.9885 15.0884 80.2876 14.8391C80.5922 14.5955 80.7999 14.3407 80.9106 14.0749C81.0269 13.8091 81.085 13.5543 81.085 13.3107C81.085 13.1556 81.0684 13.0061 81.0352 12.8621C81.002 12.7181 80.9438 12.5548 80.8607 12.372C80.7777 12.1893 80.6614 11.9622 80.5118 11.6908L81.1183 11.3835C81.3286 11.7434 81.4781 12.084 81.5668 12.4052C81.6609 12.7264 81.708 13.0089 81.708 13.2525C81.708 13.6014 81.6499 13.9171 81.5336 14.1995C81.4229 14.482 81.2734 14.7312 81.085 14.9471C80.9023 15.1687 80.7002 15.3569 80.4786 15.512C80.2626 15.6671 80.044 15.7944 79.8224 15.8941C79.6064 15.9938 79.4127 16.0658 79.2409 16.1101ZM80.678 10.4282C80.5617 10.4282 80.462 10.3894 80.3789 10.3119C80.3015 10.2288 80.2626 10.1319 80.2626 10.0212C80.2626 9.91041 80.3015 9.81349 80.3789 9.73042C80.462 9.64735 80.5617 9.60582 80.678 9.60582C80.7886 9.60582 80.883 9.64735 80.9604 9.73042C81.0435 9.81349 81.085 9.91041 81.085 10.0212C81.085 10.1319 81.0435 10.2288 80.9604 10.3119C80.883 10.3894 80.7886 10.4282 80.678 10.4282ZM82.6067 14.1995L82.4405 8.26841H83.1134L83.2795 14.1995H82.6067ZM86.505 14.1995V10.2039H85.7324V14.1995H86.505ZM85.558 8.69206C85.558 8.99942 85.8072 9.24862 86.1145 9.24862C86.4302 9.24862 86.6794 8.99942 86.6794 8.69206C86.6794 8.3764 86.4302 8.1272 86.1145 8.1272C85.8072 8.1272 85.558 8.3764 85.558 8.69206ZM87.9581 11.2506C87.9581 9.71381 88.9881 8.93296 90.0846 8.93296C91.1811 8.93296 92.2112 9.71381 92.2112 11.2506C92.2112 12.7874 91.1811 13.5765 90.0846 13.5765C88.9881 13.5765 87.9581 12.7874 87.9581 11.2506ZM87.1274 11.2506C87.1274 13.2193 88.606 14.3241 90.0846 14.3241C91.5632 14.3241 93.0419 13.2193 93.0419 11.2506C93.0419 9.28185 91.5632 8.18535 90.0846 8.18535C88.606 8.18535 87.1274 9.28185 87.1274 11.2506ZM97.4602 9.64735C97.3273 9.00772 96.7957 8.18535 95.4666 8.18535C94.3784 8.18535 93.5228 9.01603 93.5228 9.93809C93.5228 10.8186 94.1209 11.3669 94.9599 11.5496L95.7989 11.7324C96.3886 11.857 96.6794 12.2225 96.6794 12.6461C96.6794 13.1612 96.2807 13.5848 95.4666 13.5848C94.5778 13.5848 94.1126 12.9784 94.0544 12.3222L93.2736 12.5714C93.3816 13.4104 94.0544 14.3241 95.4749 14.3241C96.7292 14.3241 97.5101 13.4934 97.5101 12.5797C97.5101 11.7573 96.9618 11.1426 95.9816 10.9266L95.1011 10.7356C94.6027 10.6276 94.3452 10.3036 94.3452 9.87995C94.3452 9.33169 94.8186 8.89974 95.4832 8.89974C96.3056 8.89974 96.6628 9.48122 96.7292 9.90487L97.4602 9.64735ZM103.165 14.2411C102.866 14.2411 102.6 14.1995 102.368 14.1164C102.141 14.0278 101.958 13.8811 101.819 13.6762C101.686 13.4658 101.612 13.175 101.595 12.804L101.462 9.91317H102.135L102.268 12.6544C102.284 12.9147 102.332 13.1113 102.409 13.2442C102.487 13.3716 102.595 13.4574 102.733 13.5017C102.877 13.5405 103.049 13.5599 103.248 13.5599C103.364 13.5599 103.447 13.5931 103.497 13.6596C103.553 13.7205 103.58 13.7952 103.58 13.8839C103.58 13.9725 103.542 14.0555 103.464 14.1331C103.387 14.2051 103.287 14.2411 103.165 14.2411ZM101.911 13.3273C101.595 13.427 101.288 13.4768 100.989 13.4768C100.69 13.4768 100.418 13.4325 100.175 13.3439C99.9309 13.2553 99.7372 13.1279 99.593 12.9618C99.4491 12.7901 99.377 12.5852 99.377 12.3471C99.377 12.1145 99.4352 11.8958 99.5515 11.6908C99.6734 11.4859 99.8369 11.3032 100.042 11.1426C100.252 10.982 100.493 10.8491 100.764 10.7439C101.041 10.6331 101.335 10.5584 101.645 10.5196L101.761 11.2174C101.484 11.2284 101.238 11.2672 101.022 11.3336C100.811 11.3946 100.631 11.4749 100.482 11.5745C100.338 11.6742 100.227 11.7822 100.15 11.8985C100.072 12.0148 100.033 12.1283 100.033 12.2391C100.033 12.3609 100.078 12.4606 100.166 12.5381C100.255 12.6157 100.369 12.6766 100.507 12.7209C100.645 12.7597 100.798 12.7846 100.964 12.7957C101.13 12.8012 101.291 12.7957 101.445 12.779C101.601 12.7569 101.734 12.7264 101.844 12.6877L101.911 13.3273ZM108.044 14.2411C107.811 14.2411 107.598 14.2272 107.404 14.1995C107.21 14.1663 107.036 14.1081 106.881 14.0251C106.726 13.942 106.596 13.8229 106.491 13.6679C106.385 13.5073 106.305 13.2968 106.25 13.0366L106.74 12.7458C106.812 12.9673 106.9 13.1362 107.006 13.2525C107.111 13.3688 107.252 13.4491 107.429 13.4934C107.612 13.5377 107.845 13.5599 108.127 13.5599C108.243 13.5599 108.327 13.5931 108.376 13.6596C108.432 13.7205 108.459 13.7952 108.459 13.8839C108.459 13.9725 108.421 14.0555 108.343 14.1331C108.265 14.2051 108.166 14.2411 108.044 14.2411ZM102.753 14.2411L102.827 13.5599C103.115 13.5599 103.398 13.5377 103.675 13.4934C103.951 13.4491 104.223 13.3854 104.489 13.3024C104.755 13.2193 105.009 13.1196 105.253 13.0033C105.502 12.8815 105.737 12.7431 105.959 12.588C105.815 12.4606 105.649 12.3498 105.461 12.2557C105.272 12.1616 105.065 12.0896 104.838 12.0397C104.616 11.9843 104.381 11.9567 104.132 11.9567C104.043 11.9567 103.96 11.9594 103.882 11.965C103.805 11.9705 103.727 11.9816 103.65 11.9982C103.572 12.0093 103.484 12.0259 103.384 12.048L103.251 11.4167C103.401 11.3724 103.55 11.3392 103.7 11.317C103.849 11.2894 103.993 11.2755 104.132 11.2755C104.419 11.2755 104.68 11.3115 104.912 11.3835C105.145 11.4499 105.355 11.533 105.544 11.6327C105.737 11.7324 105.918 11.8321 106.084 11.9317C106.255 12.0314 106.421 12.1173 106.582 12.1893C106.743 12.2557 106.909 12.2889 107.08 12.2889H107.255L107.313 12.887C107.075 12.887 106.856 12.9203 106.657 12.9867C106.457 13.0532 106.261 13.139 106.067 13.2442C105.879 13.3439 105.679 13.4519 105.469 13.5682C105.258 13.6789 105.026 13.7869 104.771 13.8922C104.516 13.9918 104.223 14.0749 103.891 14.1414C103.564 14.2078 103.185 14.2411 102.753 14.2411ZM104.057 10.4199C103.94 10.4199 103.841 10.3811 103.758 10.3036C103.68 10.2205 103.641 10.1236 103.641 10.0129C103.641 9.90211 103.68 9.80518 103.758 9.72212C103.841 9.63905 103.94 9.59751 104.057 9.59751C104.167 9.59751 104.261 9.63905 104.339 9.72212C104.422 9.80518 104.464 9.90211 104.464 10.0129C104.464 10.1236 104.422 10.2205 104.339 10.3036C104.261 10.3811 104.167 10.4199 104.057 10.4199ZM107.626 14.2411L107.709 13.5599C107.887 13.5599 108.03 13.5488 108.141 13.5267C108.252 13.499 108.343 13.4353 108.416 13.3356C108.493 13.2304 108.565 13.067 108.631 12.8455C108.698 12.624 108.775 12.3139 108.864 11.9151L109.487 12.0896C109.454 12.228 109.415 12.3942 109.371 12.588C109.326 12.7818 109.304 12.959 109.304 13.1196C109.304 13.2082 109.326 13.2858 109.371 13.3522C109.415 13.4187 109.49 13.4713 109.595 13.51C109.706 13.5433 109.853 13.5599 110.035 13.5599C110.201 13.5599 110.337 13.546 110.442 13.5184C110.547 13.4907 110.633 13.4242 110.7 13.319C110.772 13.2138 110.835 13.0449 110.891 12.8123C110.946 12.5797 111.004 12.2613 111.065 11.857L111.697 11.9733C111.68 12.073 111.661 12.1948 111.639 12.3388C111.616 12.4828 111.594 12.6268 111.572 12.7707C111.556 12.9092 111.547 13.0255 111.547 13.1196C111.547 13.1971 111.564 13.2719 111.597 13.3439C111.636 13.4104 111.708 13.463 111.813 13.5017C111.924 13.5405 112.087 13.5599 112.303 13.5599C112.58 13.5599 112.779 13.5017 112.901 13.3854C113.028 13.2691 113.092 13.0919 113.092 12.8538C113.092 12.7264 113.089 12.5935 113.084 12.4551C113.078 12.3111 113.067 12.1533 113.051 11.9816C113.039 11.8044 113.02 11.6022 112.993 11.3752L113.599 11.3336C113.632 11.7822 113.668 12.1505 113.707 12.4385C113.751 12.7264 113.812 12.9535 113.89 13.1196C113.973 13.2802 114.083 13.3938 114.222 13.4602C114.36 13.5267 114.543 13.5599 114.77 13.5599C114.887 13.5599 114.97 13.5931 115.019 13.6596C115.075 13.7205 115.103 13.7952 115.103 13.8839C115.103 13.9725 115.064 14.0555 114.986 14.1331C114.909 14.2051 114.809 14.2411 114.687 14.2411C114.499 14.2411 114.33 14.2161 114.18 14.1663C114.036 14.1109 113.909 14.0389 113.798 13.9503C113.693 13.8562 113.604 13.7509 113.533 13.6347C113.466 13.5128 113.419 13.3854 113.391 13.2525L113.541 13.3024C113.48 13.5516 113.383 13.7454 113.25 13.8839C113.123 14.0168 112.97 14.1109 112.793 14.1663C112.616 14.2161 112.428 14.2411 112.228 14.2411C111.984 14.2411 111.785 14.2106 111.63 14.1497C111.475 14.0888 111.353 13.9974 111.265 13.8755C111.182 13.7482 111.126 13.5876 111.099 13.3938H111.381C111.276 13.6319 111.165 13.8119 111.049 13.9337C110.932 14.0555 110.788 14.1386 110.617 14.1829C110.445 14.2217 110.218 14.2411 109.936 14.2411C109.797 14.2411 109.648 14.2189 109.487 14.1746C109.332 14.1303 109.196 14.0444 109.08 13.9171C108.964 13.7842 108.894 13.5876 108.872 13.3273L109.122 13.2775C109.027 13.5599 108.911 13.7703 108.773 13.9088C108.64 14.0417 108.479 14.1303 108.291 14.1746C108.103 14.2189 107.881 14.2411 107.626 14.2411ZM114.269 14.2411L114.352 13.5599C114.623 13.5599 114.839 13.5433 115 13.51C115.16 13.4768 115.276 13.4104 115.348 13.3107C115.42 13.2055 115.456 13.0504 115.456 12.8455C115.456 12.707 115.434 12.5437 115.39 12.3554C115.346 12.1616 115.287 11.9567 115.216 11.7407C115.143 11.5247 115.066 11.3115 114.983 11.1011L115.656 10.8518C115.728 11.0291 115.794 11.2312 115.855 11.4583C115.922 11.6853 115.977 11.9096 116.021 12.1311C116.066 12.3526 116.088 12.5465 116.088 12.7126C116.088 12.9341 116.063 13.1307 116.013 13.3024C115.969 13.4685 115.899 13.6125 115.805 13.7343C115.711 13.8506 115.589 13.9476 115.44 14.0251C115.296 14.0971 115.127 14.1524 114.933 14.1912C114.739 14.2244 114.518 14.2411 114.269 14.2411ZM115.332 9.98794C115.216 9.98794 115.116 9.94916 115.033 9.87164C114.955 9.78857 114.917 9.69165 114.917 9.5809C114.917 9.47015 114.955 9.37323 115.033 9.29016C115.116 9.20709 115.216 9.16556 115.332 9.16556C115.443 9.16556 115.537 9.20709 115.614 9.29016C115.697 9.37323 115.739 9.47015 115.739 9.5809C115.739 9.69165 115.697 9.78857 115.614 9.87164C115.537 9.94916 115.443 9.98794 115.332 9.98794ZM120.985 14.374L121.201 13.6928C121.539 13.6928 121.896 13.6734 122.273 13.6347C122.649 13.5904 123.023 13.5156 123.394 13.4104C123.771 13.2996 124.128 13.1501 124.466 12.9618C124.803 12.7735 125.1 12.5354 125.354 12.2474L125.878 12.5548C125.828 12.6821 125.795 12.7846 125.778 12.8621C125.761 12.9341 125.753 13.0006 125.753 13.0615C125.753 13.1445 125.784 13.2249 125.845 13.3024C125.906 13.3744 126.019 13.4353 126.185 13.4851C126.357 13.535 126.598 13.5599 126.908 13.5599C127.024 13.5599 127.107 13.5931 127.157 13.6596C127.212 13.7205 127.24 13.7952 127.24 13.8839C127.24 13.9725 127.201 14.0555 127.124 14.1331C127.046 14.2051 126.947 14.2411 126.825 14.2411C126.47 14.2411 126.157 14.2051 125.886 14.1331C125.62 14.0555 125.421 13.9365 125.288 13.7759C125.161 13.6097 125.119 13.3965 125.163 13.1362L125.313 13.1861C125.092 13.3854 124.826 13.5599 124.515 13.7094C124.211 13.8534 123.87 13.9752 123.494 14.0749C123.123 14.1746 122.724 14.2494 122.297 14.2992C121.877 14.349 121.439 14.374 120.985 14.374ZM120.985 14.374C120.492 14.374 120.058 14.3407 119.681 14.2743C119.31 14.2134 119 14.1164 118.75 13.9835C118.501 13.8506 118.313 13.6789 118.186 13.4685C118.058 13.2525 117.995 12.9923 117.995 12.6877C117.995 12.5492 118.006 12.408 118.028 12.264C118.05 12.1145 118.078 11.965 118.111 11.8154C118.15 11.6659 118.189 11.5219 118.227 11.3835L118.85 11.5413C118.828 11.6244 118.803 11.7241 118.775 11.8404C118.748 11.9511 118.723 12.0647 118.701 12.1809C118.684 12.2972 118.676 12.4025 118.676 12.4966C118.676 12.7846 118.748 13.0172 118.892 13.1944C119.041 13.3661 119.299 13.4934 119.664 13.5765C120.03 13.654 120.542 13.6928 121.201 13.6928L121.367 14.1081L120.985 14.374ZM122.381 10.8685C122.264 10.8685 122.165 10.8297 122.081 10.7522C122.004 10.6691 121.965 10.5722 121.965 10.4614C121.965 10.3507 122.004 10.2538 122.081 10.1707C122.165 10.0876 122.264 10.0461 122.381 10.0461C122.492 10.0461 122.586 10.0876 122.663 10.1707C122.746 10.2538 122.788 10.3507 122.788 10.4614C122.788 10.5722 122.746 10.6691 122.663 10.7522C122.586 10.8297 122.492 10.8685 122.381 10.8685ZM121.243 10.8685C121.126 10.8685 121.027 10.8297 120.943 10.7522C120.866 10.6691 120.827 10.5722 120.827 10.4614C120.827 10.3507 120.866 10.2538 120.943 10.1707C121.027 10.0876 121.126 10.0461 121.243 10.0461C121.353 10.0461 121.448 10.0876 121.525 10.1707C121.608 10.2538 121.65 10.3507 121.65 10.4614C121.65 10.5722 121.608 10.6691 121.525 10.7522C121.448 10.8297 121.353 10.8685 121.243 10.8685ZM126.408 14.2411L126.491 13.5599C126.629 13.5599 126.781 13.5599 126.948 13.5599C127.119 13.5543 127.291 13.5488 127.463 13.5433C127.64 13.5377 127.803 13.5267 127.953 13.51C128.102 13.4879 128.227 13.4602 128.326 13.427C128.526 13.355 128.681 13.2664 128.792 13.1612C128.902 13.0504 128.98 12.9064 129.024 12.7292C129.074 12.5465 129.099 12.3139 129.099 12.0314C129.099 11.7988 129.068 11.5829 129.008 11.3835C128.947 11.1841 128.861 11.0235 128.75 10.9017C128.639 10.7798 128.507 10.7189 128.351 10.7189C128.224 10.7189 128.108 10.7688 128.003 10.8685C127.903 10.9626 127.822 11.0844 127.762 11.234C127.706 11.3835 127.679 11.533 127.679 11.6825C127.679 11.7988 127.701 11.8985 127.745 11.9816C127.795 12.0647 127.875 12.1311 127.986 12.1809C128.097 12.2252 128.241 12.2474 128.418 12.2474C128.578 12.2474 128.739 12.2308 128.9 12.1976C129.066 12.1643 129.207 12.12 129.323 12.0647L129.357 12.6461C129.268 12.707 129.168 12.7569 129.057 12.7957C128.947 12.8344 128.831 12.8621 128.709 12.8787C128.587 12.8953 128.465 12.9036 128.343 12.9036C128.061 12.9036 127.82 12.8594 127.62 12.7707C127.427 12.6766 127.277 12.552 127.172 12.3969C127.072 12.2363 127.022 12.0536 127.022 11.8487C127.022 11.6382 127.056 11.4278 127.122 11.2174C127.188 11.0014 127.282 10.8048 127.404 10.6276C127.526 10.4504 127.673 10.3091 127.845 10.2039C128.016 10.0932 128.208 10.0378 128.418 10.0378C128.717 10.0378 128.963 10.1347 129.157 10.3285C129.357 10.5223 129.503 10.7771 129.597 11.0927C129.697 11.4029 129.747 11.7324 129.747 12.0813C129.747 12.4966 129.675 12.8538 129.531 13.1529C129.392 13.4464 129.16 13.69 128.833 13.8839C128.706 13.9559 128.551 14.0168 128.368 14.0666C128.191 14.1109 127.994 14.1469 127.778 14.1746C127.568 14.2023 127.346 14.2189 127.114 14.2244C126.881 14.2355 126.646 14.2411 126.408 14.2411ZM128.26 9.18217C128.144 9.18217 128.044 9.14339 127.961 9.06587C127.884 8.9828 127.845 8.88588 127.845 8.77513C127.845 8.66438 127.884 8.56746 127.961 8.48439C128.044 8.40132 128.144 8.35979 128.26 8.35979C128.371 8.35979 128.465 8.40132 128.542 8.48439C128.626 8.56746 128.667 8.66438 128.667 8.77513C128.667 8.88588 128.626 8.9828 128.542 9.06587C128.465 9.14339 128.371 9.18217 128.26 9.18217ZM132.125 14.2411C131.682 14.2411 131.341 14.1912 131.103 14.0915C130.87 13.9918 130.71 13.8368 130.621 13.6263C130.533 13.4159 130.483 13.1445 130.472 12.8123L130.306 8.26841H130.987L131.153 12.5465C131.164 12.8178 131.189 13.0282 131.228 13.1778C131.272 13.3217 131.366 13.4214 131.51 13.4768C131.66 13.5322 131.892 13.5599 132.208 13.5599C132.324 13.5599 132.407 13.5931 132.457 13.6596C132.513 13.7205 132.54 13.7952 132.54 13.8839C132.54 13.9725 132.502 14.0555 132.424 14.1331C132.346 14.2051 132.247 14.2411 132.125 14.2411ZM131.71 14.2411L131.793 13.5599C132.119 13.5599 132.374 13.5488 132.557 13.5267C132.74 13.499 132.87 13.4353 132.947 13.3356C133.025 13.2304 133.064 13.067 133.064 12.8455C133.064 12.707 133.042 12.5437 132.997 12.3554C132.953 12.1616 132.895 11.9567 132.823 11.7407C132.751 11.5247 132.673 11.3115 132.59 11.1011L133.263 10.8518C133.335 11.0291 133.401 11.2312 133.463 11.4583C133.529 11.6853 133.584 11.9096 133.629 12.1311C133.673 12.3526 133.695 12.5465 133.695 12.7126C133.695 12.9895 133.656 13.2249 133.579 13.4187C133.507 13.6125 133.39 13.7703 133.23 13.8922C133.069 14.014 132.861 14.1026 132.607 14.158C132.358 14.2134 132.059 14.2411 131.71 14.2411ZM133.247 15.811C133.13 15.811 133.031 15.7695 132.947 15.6864C132.87 15.6089 132.831 15.5148 132.831 15.404C132.831 15.2933 132.87 15.1963 132.947 15.1133C133.031 15.0302 133.13 14.9887 133.247 14.9887C133.357 14.9887 133.451 15.0302 133.529 15.1133C133.612 15.1963 133.654 15.2933 133.654 15.404C133.654 15.5148 133.612 15.6089 133.529 15.6864C133.451 15.7695 133.357 15.811 133.247 15.811ZM132.108 15.811C131.992 15.811 131.892 15.7695 131.809 15.6864C131.732 15.6089 131.693 15.5148 131.693 15.404C131.693 15.2933 131.732 15.1963 131.809 15.1133C131.892 15.0302 131.992 14.9887 132.108 14.9887C132.219 14.9887 132.313 15.0302 132.391 15.1133C132.474 15.1963 132.516 15.2933 132.516 15.404C132.516 15.5148 132.474 15.6089 132.391 15.6864C132.313 15.7695 132.219 15.811 132.108 15.811ZM133.81 16.1101L133.569 15.4788C134.128 15.3016 134.558 15.0884 134.857 14.8391C135.161 14.5955 135.369 14.3407 135.48 14.0749C135.596 13.8091 135.654 13.5543 135.654 13.3107C135.654 13.1556 135.637 13.0061 135.604 12.8621C135.571 12.7181 135.513 12.5548 135.43 12.372C135.347 12.1893 135.23 11.9622 135.081 11.6908L135.687 11.3835C135.898 11.7434 136.047 12.084 136.136 12.4052C136.23 12.7264 136.277 13.0089 136.277 13.2525C136.277 13.6014 136.219 13.9171 136.103 14.1995C135.992 14.482 135.842 14.7312 135.654 14.9471C135.471 15.1687 135.269 15.3569 135.048 15.512C134.832 15.6671 134.613 15.7944 134.391 15.8941C134.175 15.9938 133.982 16.0658 133.81 16.1101ZM136.702 13.8257L137.034 13.2525C137.145 13.3245 137.3 13.3938 137.5 13.4602C137.699 13.5267 137.932 13.5599 138.197 13.5599C138.475 13.5599 138.693 13.5322 138.854 13.4768C139.02 13.4214 139.139 13.3412 139.211 13.2359C139.289 13.1252 139.327 12.9978 139.327 12.8538C139.327 12.7431 139.302 12.6074 139.252 12.4468C139.208 12.2806 139.109 12.0591 138.953 11.7822C138.798 11.4998 138.56 11.1315 138.239 10.6774L138.812 10.3036C139.106 10.7079 139.338 11.0734 139.51 11.4001C139.687 11.7268 139.812 12.0148 139.884 12.264C139.961 12.5077 140 12.7181 140 12.8953C140 13.1169 139.945 13.3328 139.834 13.5433C139.723 13.7482 139.538 13.9171 139.277 14.05C139.017 14.1829 138.657 14.2494 138.197 14.2494C137.998 14.2494 137.804 14.2327 137.616 14.1995C137.433 14.1663 137.264 14.1192 137.109 14.0583C136.954 13.9918 136.818 13.9143 136.702 13.8257Z" fill="black"/>
<path fill-rule="evenodd" clip-rule="evenodd" d="M95.6665 19.1101H98.5043C98.7022 19.1101 98.8601 19.27 98.8601 19.4659V27.7997C98.8601 28.7711 98.0727 29.5583 97.1013 29.5583H95.6665C95.4707 29.5583 95.3107 29.3986 95.3107 29.2028V19.4659C95.3107 19.27 95.4707 19.1101 95.6665 19.1101ZM126.07 26.0091H139.646H139.648C139.842 26.0091 140 26.167 140 26.3608V27.8018C140 28.7712 139.215 29.5586 138.243 29.5586H126.476C125.095 29.5586 123.844 29.0249 122.903 28.1595C121.963 29.0249 120.71 29.5586 119.331 29.5586C117.964 29.5586 116.723 29.033 115.786 28.1815C114.848 29.0347 113.605 29.5586 112.238 29.5586H102.232C101.262 29.5586 100.475 28.7729 100.475 27.8018V26.3608C100.475 26.167 100.633 26.0091 100.827 26.0091H112.642C113.375 26.0091 113.971 25.4135 113.971 24.6801V23.0733C113.971 22.8814 114.127 22.7255 114.319 22.7255H117.253C117.445 22.7255 117.601 22.8814 117.601 23.0733V24.6861C117.601 25.4176 118.194 26.0111 118.926 26.0111H119.737C120.469 26.0111 121.062 25.4176 121.062 24.6861V23.0733C121.062 22.8814 121.218 22.7255 121.41 22.7255H124.262H124.393C124.585 22.7255 124.741 22.8814 124.741 23.0733V24.6801C124.741 25.4135 125.337 26.0091 126.07 26.0091ZM117.765 30.7876H122.539V30.7855C122.683 30.7855 122.801 30.9033 122.801 31.0473V31.7907C122.801 32.694 122.067 33.4276 121.164 33.4276H117.765C117.629 33.4276 117.519 33.3175 117.519 33.1816V31.0333C117.519 30.8973 117.629 30.7876 117.765 30.7876ZM91.0998 31.2112H86.2375C86.1015 31.2112 85.9918 31.321 85.9918 31.4569V33.4975C85.9918 33.6933 86.1497 33.8512 86.3476 33.8512H88.5518V35.8079C88.5518 35.9516 88.6678 36.0676 88.8118 36.0676H89.5133C90.4864 36.0676 91.2739 35.278 91.2739 34.307V31.3832C91.2739 31.2871 91.1959 31.2112 91.1019 31.2112H91.0998ZM107.893 31.0292H109.999C110.195 31.0292 110.355 31.1889 110.355 31.385V33.4095C110.355 33.5532 110.239 33.6692 110.095 33.6692H107.987C107.791 33.6692 107.633 33.5112 107.633 33.3155V31.2889C107.633 31.1452 107.749 31.0292 107.893 31.0292ZM93.6265 26.009H78.3537C78.1577 26.009 78 26.1669 78 26.3627V27.8017C78 28.7729 78.7872 29.5583 79.7567 29.5583H93.6265C93.8243 29.5583 93.982 29.3985 93.982 29.2025V26.3667C93.982 26.1689 93.8223 26.011 93.6265 26.011V26.009Z" fill="black"/>
<path fill-rule="evenodd" clip-rule="evenodd" d="M28.9008 5.0507C25.1651 4.59221 21.7695 7.29464 21.3181 11.0883L21.2391 11.7525C21.2264 11.8668 21.3068 11.971 21.4197 11.9853L22.0742 12.0653C25.8098 12.5238 29.2054 9.82137 29.6567 6.02768L29.7358 5.3635C29.75 5.24922 29.6683 5.14496 29.5554 5.13068L28.9008 5.0507ZM9.86841 22.0409C9.86841 17.7573 13.288 14.2835 17.5074 14.2835H26.7984C31.0177 14.2835 34.4375 17.7573 34.4375 22.0409V31.4752C34.4375 35.7601 31.0177 39.2326 26.7984 39.2326H17.5074C13.288 39.2326 9.86841 35.7586 9.86841 31.4752V22.0409ZM15.2362 22.4594C15.2362 20.9539 16.4381 19.7341 17.9208 19.7341H26.3864C27.8691 19.7341 29.0712 20.9539 29.0712 22.4594V31.0552C29.0712 32.5607 27.8691 33.7806 26.3864 33.7806H17.9208C16.4381 33.7806 15.2362 32.5607 15.2362 31.0552V22.4594Z" fill="black"/>
<rect x="0.5" y="0.5" width="149" height="44" rx="7.5" stroke="#E0E0E0"/>
</svg>
